<svg width="805" height="804" xmlns="http://www.w3.org/2000/svg" xmlns:xlink="http://www.w3.org/1999/xlink" xml:space="preserve" overflow="hidden"><defs><clipPath id="clip0"><rect x="2136" y="1218" width="805" height="804"/></clipPath><linearGradient x1="2539.5" y1="1328.5" x2="2539.5" y2="1912.5" gradientUnits="userSpaceOnUse" spreadMethod="reflect" id="fill1"><stop offset="0" stop-color="#FFBA75"/><stop offset="0.01" stop-color="#FFBA75"/><stop offset="0.99" stop-color="#FFDE6F"/><stop offset="1" stop-color="#FFDE6F"/></linearGradient></defs><g clip-path="url(#clip0)" transform="translate(-2136 -1218)"><rect x="2136" y="1218" width="805" height="804" fill="#FFFFFF" fill-opacity="0"/><path d="M2542.36 1328.5C2494.65 1476.6 2458.39 1584.62 2251.5 1621.65 2437.39 1663.63 2514.5 1735.39 2537.78 1912.5 2574.81 1737.68 2656.49 1669.36 2827.5 1618.21 2662.6 1584.62 2584.73 1506.37 2542.36 1328.5Z" stroke="#FFFFFF" stroke-width="55" stroke-linecap="round" stroke-linejoin="round" stroke-miterlimit="10" fill="none" fill-rule="evenodd"/><path d="M2542.36 1328.5C2494.65 1476.6 2458.39 1584.62 2251.5 1621.65 2437.39 1663.63 2514.5 1735.39 2537.78 1912.5 2574.81 1737.68 2656.49 1669.36 2827.5 1618.21 2662.6 1584.62 2584.73 1506.37 2542.36 1328.5Z" stroke="#8D605D" stroke-width="20.625" stroke-linecap="round" stroke-linejoin="round" stroke-miterlimit="10" fill="url(#fill1)" fill-rule="evenodd"/></g></svg>