<svg width="805" height="804" xmlns="http://www.w3.org/2000/svg" xmlns:xlink="http://www.w3.org/1999/xlink" xml:space="preserve" overflow="hidden"><defs><clipPath id="clip0"><rect x="1498" y="983" width="805" height="804"/></clipPath><linearGradient x1="1900.5" y1="1061.5" x2="1900.5" y2="1709.5" gradientUnits="userSpaceOnUse" spreadMethod="reflect" id="fill1"><stop offset="0" stop-color="#64C9C9"/><stop offset="0.01" stop-color="#64C9C9"/><stop offset="0.99" stop-color="#8F88E5"/><stop offset="1" stop-color="#8F88E5"/></linearGradient><linearGradient x1="1900.5" y1="1061.5" x2="1900.5" y2="1709.5" gradientUnits="userSpaceOnUse" spreadMethod="reflect" id="fill2"><stop offset="0" stop-color="#64C9C9"/><stop offset="0.01" stop-color="#64C9C9"/><stop offset="0.99" stop-color="#8F88E5"/><stop offset="1" stop-color="#8F88E5"/></linearGradient><linearGradient x1="1900.5" y1="1061.5" x2="1900.5" y2="1709.5" gradientUnits="userSpaceOnUse" spreadMethod="reflect" id="fill3"><stop offset="0" stop-color="#64C9C9"/><stop offset="0.01" stop-color="#64C9C9"/><stop offset="0.99" stop-color="#8F88E5"/><stop offset="1" stop-color="#8F88E5"/></linearGradient></defs><g clip-path="url(#clip0)" transform="translate(-1498 -983)"><rect x="1498" y="983" width="805" height="804" fill="#FFFFFF" fill-opacity="0"/><path d="M1681.5 1109.01C1681.5 1082.77 1702.77 1061.5 1729.01 1061.5L1729.01 1061.5C1755.25 1061.5 1776.52 1082.77 1776.52 1109.01L1776.52 1661.99C1776.52 1688.23 1755.25 1709.5 1729.01 1709.5L1729.01 1709.5C1702.77 1709.5 1681.5 1688.23 1681.5 1661.99Z" stroke="#FFFFFF" stroke-width="55" stroke-linecap="round" stroke-linejoin="round" stroke-miterlimit="10" fill="none" fill-rule="evenodd"/><path d="M2025.5 1108.5C2025.5 1082.54 2046.54 1061.5 2072.5 1061.5L2072.5 1061.5C2098.46 1061.5 2119.5 1082.54 2119.5 1108.5L2119.5 1544.5C2119.5 1570.46 2098.46 1591.5 2072.5 1591.5L2072.5 1591.5C2046.54 1591.5 2025.5 1570.46 2025.5 1544.5Z" stroke="#FFFFFF" stroke-width="55" stroke-linecap="round" stroke-linejoin="round" stroke-miterlimit="10" fill="none" fill-rule="evenodd"/><path d="M1853.5 1109C1853.5 1082.77 1874.77 1061.5 1901 1061.5L1901 1061.5C1927.23 1061.5 1948.5 1082.77 1948.5 1109L1948.5 1447C1948.5 1473.23 1927.23 1494.5 1901 1494.5L1901 1494.5C1874.77 1494.5 1853.5 1473.23 1853.5 1447Z" stroke="#FFFFFF" stroke-width="55" stroke-linecap="round" stroke-linejoin="round" stroke-miterlimit="10" fill="none" fill-rule="evenodd"/><path d="M1681.5 1109.01C1681.5 1082.77 1702.77 1061.5 1729.01 1061.5L1729.01 1061.5C1755.25 1061.5 1776.52 1082.77 1776.52 1109.01L1776.52 1661.99C1776.52 1688.23 1755.25 1709.5 1729.01 1709.5L1729.01 1709.5C1702.77 1709.5 1681.5 1688.23 1681.5 1661.99Z" stroke="#7D4A62" stroke-width="20.625" stroke-linecap="round" stroke-linejoin="round" stroke-miterlimit="10" fill="url(#fill1)" fill-rule="evenodd"/><path d="M2025.5 1108.5C2025.5 1082.54 2046.54 1061.5 2072.5 1061.5L2072.5 1061.5C2098.46 1061.5 2119.5 1082.54 2119.5 1108.5L2119.5 1544.5C2119.5 1570.46 2098.46 1591.5 2072.5 1591.5L2072.5 1591.5C2046.54 1591.5 2025.5 1570.46 2025.5 1544.5Z" stroke="#7D4A62" stroke-width="20.625" stroke-linecap="round" stroke-linejoin="round" stroke-miterlimit="10" fill="url(#fill2)" fill-rule="evenodd"/><path d="M1853.5 1109C1853.5 1082.77 1874.77 1061.5 1901 1061.5L1901 1061.5C1927.23 1061.5 1948.5 1082.77 1948.5 1109L1948.5 1447C1948.5 1473.23 1927.23 1494.5 1901 1494.5L1901 1494.5C1874.77 1494.5 1853.5 1473.23 1853.5 1447Z" stroke="#7D4A62" stroke-width="20.625" stroke-linecap="round" stroke-linejoin="round" stroke-miterlimit="10" fill="url(#fill3)" fill-rule="evenodd"/></g></svg>