<svg width="804" height="805" xmlns="http://www.w3.org/2000/svg" xmlns:xlink="http://www.w3.org/1999/xlink" xml:space="preserve" overflow="hidden"><defs><clipPath id="clip0"><rect x="2771" y="50" width="804" height="805"/></clipPath><linearGradient x1="3173.5" y1="133.5" x2="3173.5" y2="772.5" gradientUnits="userSpaceOnUse" spreadMethod="reflect" id="fill1"><stop offset="0" stop-color="#FFAA88"/><stop offset="0.01" stop-color="#FFAA88"/><stop offset="0.99" stop-color="#F56863"/><stop offset="1" stop-color="#F56863"/></linearGradient><linearGradient x1="3173.5" y1="133.5" x2="3173.5" y2="772.5" gradientUnits="userSpaceOnUse" spreadMethod="reflect" id="fill2"><stop offset="0" stop-color="#FFAA88"/><stop offset="0.01" stop-color="#FFAA88"/><stop offset="0.99" stop-color="#F56863"/><stop offset="1" stop-color="#F56863"/></linearGradient></defs><g clip-path="url(#clip0)" transform="translate(-2771 -50)"><rect x="2771" y="49.9998" width="804" height="805" fill="#FFFFFF" fill-opacity="0"/><path d="M3005.82 406.89C3104.47 390.446 3189.36 308.608 3174.45 144.167 3254.93 111.278 3307.38 157.201 3309.8 243.979 3311.42 301.893 3301.01 312.241 3285.71 347.233 3404.24 303.637 3484.99 414.003 3486.45 529.648 3489.29 754.339 3366.45 799.847 3197.39 759.101 3126.07 741.911 3073.12 735.773 2995.5 694.854L3005.82 406.89Z" stroke="#FFFFFF" stroke-width="55" stroke-linecap="round" stroke-linejoin="round" stroke-miterlimit="10" fill="none" fill-rule="evenodd"/><path d="M2948.09 591.365C2928.18 591.365 2912.04 607.535 2912.04 627.482 2912.04 647.43 2928.18 663.6 2948.09 663.6 2968 663.6 2984.14 647.43 2984.14 627.482 2984.14 607.535 2968 591.365 2948.09 591.365ZM2974.39 392.504C2987.28 392.432 3001.02 393.292 3016.18 395.299 3032.2 505.753 3040.21 631.113 3026.48 702.583 2966.97 722.84 2921.19 723.604 2875.41 711.756 2857.1 617.736 2858.25 526.009 2865.11 412.498 2904.6 401.318 2935.71 392.719 2974.39 392.504Z" stroke="#FFFFFF" stroke-width="55" stroke-linecap="round" stroke-linejoin="round" stroke-miterlimit="10" fill="none" fill-rule="evenodd"/><path d="M3005.82 406.89C3104.47 390.446 3189.36 308.608 3174.45 144.167 3254.93 111.278 3307.38 157.201 3309.8 243.979 3311.42 301.893 3301.01 312.241 3285.71 347.233 3404.24 303.637 3484.99 414.003 3486.45 529.648 3489.29 754.339 3366.45 799.847 3197.39 759.101 3126.07 741.911 3073.12 735.773 2995.5 694.854L3005.82 406.89Z" stroke="#894C4B" stroke-width="20.625" stroke-linecap="round" stroke-linejoin="round" stroke-miterlimit="10" fill="url(#fill1)" fill-rule="evenodd"/><path d="M2948.09 591.365C2928.18 591.365 2912.04 607.535 2912.04 627.482 2912.04 647.43 2928.18 663.6 2948.09 663.6 2968 663.6 2984.14 647.43 2984.14 627.482 2984.14 607.535 2968 591.365 2948.09 591.365ZM2974.39 392.504C2987.28 392.432 3001.02 393.292 3016.18 395.299 3032.2 505.753 3040.21 631.113 3026.48 702.583 2966.97 722.84 2921.19 723.604 2875.41 711.756 2857.1 617.736 2858.25 526.009 2865.11 412.498 2904.6 401.318 2935.71 392.719 2974.39 392.504Z" stroke="#894C4B" stroke-width="20.625" stroke-linecap="round" stroke-linejoin="round" stroke-miterlimit="10" fill="url(#fill2)" fill-rule="evenodd"/></g></svg>