<svg width="804" height="804" xmlns="http://www.w3.org/2000/svg" xmlns:xlink="http://www.w3.org/1999/xlink" xml:space="preserve" overflow="hidden"><defs><clipPath id="clip0"><rect x="519" y="449" width="804" height="804"/></clipPath><linearGradient x1="921.5" y1="543.5" x2="921.5" y2="1160.5" gradientUnits="userSpaceOnUse" spreadMethod="reflect" id="fill1"><stop offset="0" stop-color="#76C3CC"/><stop offset="0.01" stop-color="#76C3CC"/><stop offset="0.99" stop-color="#6C83F5"/><stop offset="1" stop-color="#6C83F5"/></linearGradient></defs><g clip-path="url(#clip0)" transform="translate(-519 -449)"><rect x="519" y="449" width="804" height="804" fill="#FFFFFF" fill-opacity="0"/><path d="M922.697 543.5C879.484 775.067 755.906 892.469 755.502 995.297 755.098 1098.13 796.695 1158.85 920.273 1160.47 1043.85 1162.09 1085.04 1098.13 1087.47 1005.01 1089.89 911.9 958.64 773.446 922.697 543.5Z" stroke="#FFFFFF" stroke-width="55" stroke-linecap="round" stroke-linejoin="round" stroke-miterlimit="10" fill="none" fill-rule="evenodd"/><path d="M922.697 543.5C879.484 775.067 755.906 892.469 755.502 995.297 755.098 1098.13 796.695 1158.85 920.273 1160.47 1043.85 1162.09 1085.04 1098.13 1087.47 1005.01 1089.89 911.9 958.64 773.446 922.697 543.5Z" stroke="#856867" stroke-width="20.625" stroke-linecap="round" stroke-linejoin="round" stroke-miterlimit="10" fill="url(#fill1)" fill-rule="evenodd"/></g></svg>