<svg width="804" height="805" xmlns="http://www.w3.org/2000/svg" xmlns:xlink="http://www.w3.org/1999/xlink" xml:space="preserve" overflow="hidden"><defs><clipPath id="clip0"><rect x="2084" y="50" width="804" height="805"/></clipPath><linearGradient x1="2486.5" y1="85.5002" x2="2486.5" y2="820.5" gradientUnits="userSpaceOnUse" spreadMethod="reflect" id="fill1"><stop offset="0" stop-color="#F8C578"/><stop offset="0.01" stop-color="#F8C578"/><stop offset="0.99" stop-color="#F39963"/><stop offset="1" stop-color="#F39963"/></linearGradient><linearGradient x1="2486.5" y1="85.5002" x2="2486.5" y2="820.5" gradientUnits="userSpaceOnUse" spreadMethod="reflect" id="fill2"><stop offset="0" stop-color="#F8C578"/><stop offset="0.01" stop-color="#F8C578"/><stop offset="0.99" stop-color="#F39963"/><stop offset="1" stop-color="#F39963"/></linearGradient></defs><g clip-path="url(#clip0)" transform="translate(-2084 -50)"><rect x="2084" y="49.9998" width="804" height="805" fill="#FFFFFF" fill-opacity="0"/><path d="M2426.02 571.34C2434.15 597.794 2530.67 590.347 2535.32 571.34 2567.73 438.813 2594.77 138.554 2566.89 112.664 2535.99 83.9765 2453.23 70.6174 2406.59 110.237 2384.31 129.16 2394 467.105 2426.02 571.34Z" stroke="#FFFFFF" stroke-width="55" stroke-linecap="round" stroke-linejoin="round" stroke-miterlimit="10" fill="none" fill-rule="evenodd"/><path d="M2403.5 738C2403.5 692.437 2440.66 655.5 2486.5 655.5 2532.34 655.5 2569.5 692.437 2569.5 738 2569.5 783.564 2532.34 820.5 2486.5 820.5 2440.66 820.5 2403.5 783.564 2403.5 738Z" stroke="#FFFFFF" stroke-width="55" stroke-linecap="round" stroke-linejoin="round" stroke-miterlimit="10" fill="none" fill-rule="evenodd"/><path d="M2426.02 571.34C2434.15 597.794 2530.67 590.347 2535.32 571.34 2567.73 438.813 2594.77 138.554 2566.89 112.664 2535.99 83.9765 2453.23 70.6174 2406.59 110.237 2384.31 129.16 2394 467.105 2426.02 571.34Z" stroke="#042433" stroke-width="20.625" stroke-linecap="round" stroke-linejoin="round" stroke-miterlimit="10" fill="url(#fill1)" fill-rule="evenodd"/><path d="M2403.5 738C2403.5 692.437 2440.66 655.5 2486.5 655.5 2532.34 655.5 2569.5 692.437 2569.5 738 2569.5 783.564 2532.34 820.5 2486.5 820.5 2440.66 820.5 2403.5 783.564 2403.5 738Z" stroke="#042433" stroke-width="20.625" stroke-linecap="round" stroke-linejoin="round" stroke-miterlimit="10" fill="url(#fill2)" fill-rule="evenodd"/></g></svg>