<svg width="805" height="805" xmlns="http://www.w3.org/2000/svg" xmlns:xlink="http://www.w3.org/1999/xlink" xml:space="preserve" overflow="hidden"><defs><clipPath id="clip0"><rect x="189" y="1407" width="805" height="805"/></clipPath><linearGradient x1="591.501" y1="1553.5" x2="591.501" y2="2066.5" gradientUnits="userSpaceOnUse" spreadMethod="reflect" id="fill1"><stop offset="0" stop-color="#FBAC80"/><stop offset="0.01" stop-color="#FBAC80"/><stop offset="0.99" stop-color="#F06561"/><stop offset="1" stop-color="#F06561"/></linearGradient></defs><g clip-path="url(#clip0)" transform="translate(-189 -1407)"><rect x="189" y="1407" width="805" height="805" fill="#FFFFFF" fill-opacity="0"/><path d="M587.852 2066.49C504.066 2064.87 278.71 1914.83 274.561 1723.67 270.299 1527.29 490.707 1520.65 595.138 1619.12 694.711 1511.33 902.693 1527.62 908.429 1733.4 913.286 1907.65 671.639 2068.11 587.852 2066.49Z" stroke="#FFFFFF" stroke-width="55" stroke-linecap="round" stroke-linejoin="round" stroke-miterlimit="10" fill="none" fill-rule="evenodd"/><path d="M587.852 2066.49C504.066 2064.87 278.71 1914.83 274.561 1723.67 270.299 1527.29 490.707 1520.65 595.138 1619.12 694.711 1511.33 902.693 1527.62 908.429 1733.4 913.286 1907.65 671.639 2068.11 587.852 2066.49Z" stroke="#8B5A59" stroke-width="20.625" stroke-linecap="round" stroke-linejoin="round" stroke-miterlimit="10" fill="url(#fill1)" fill-rule="evenodd"/></g></svg>