<svg width="805" height="805" xmlns="http://www.w3.org/2000/svg" xmlns:xlink="http://www.w3.org/1999/xlink" xml:space="preserve" overflow="hidden"><defs><clipPath id="clip0"><rect x="1498" y="50" width="805" height="805"/></clipPath><linearGradient x1="1901" y1="130.5" x2="1901" y2="775.5" gradientUnits="userSpaceOnUse" spreadMethod="reflect" id="fill1"><stop offset="0" stop-color="#FFA38B"/><stop offset="0.01" stop-color="#FFA38B"/><stop offset="0.99" stop-color="#FF6666"/><stop offset="1" stop-color="#FF6666"/></linearGradient><linearGradient x1="1901" y1="130.5" x2="1901" y2="775.5" gradientUnits="userSpaceOnUse" spreadMethod="reflect" id="fill2"><stop offset="0" stop-color="#FFA38B"/><stop offset="0.01" stop-color="#FFA38B"/><stop offset="0.99" stop-color="#FF6666"/><stop offset="1" stop-color="#FF6666"/></linearGradient><linearGradient x1="1901" y1="130.5" x2="1901" y2="775.5" gradientUnits="userSpaceOnUse" spreadMethod="reflect" id="fill3"><stop offset="0" stop-color="#FFA38B"/><stop offset="0.01" stop-color="#FFA38B"/><stop offset="0.99" stop-color="#FF6666"/><stop offset="1" stop-color="#FF6666"/></linearGradient><linearGradient x1="1901" y1="130.5" x2="1901" y2="775.5" gradientUnits="userSpaceOnUse" spreadMethod="reflect" id="fill4"><stop offset="0" stop-color="#FFA38B"/><stop offset="0.01" stop-color="#FFA38B"/><stop offset="0.99" stop-color="#FF6666"/><stop offset="1" stop-color="#FF6666"/></linearGradient></defs><g clip-path="url(#clip0)" transform="translate(-1498 -50)"><rect x="1498" y="49.9998" width="805" height="805" fill="#FFFFFF" fill-opacity="0"/><path d="M1850.57 278.945C1810.25 203.976 1777.01 158.432 1818.82 136.993 1866.77 112.404 1884.99 162.656 1906.34 204.097 1942.94 275.119 1958.23 266.479 2024.76 227.326 2083.77 192.599 2100 186.148 2125.16 219.583 2146.52 247.965 2148.11 260.445 2035.06 326.262 1931.8 386.381 1906.26 382.5 1850.57 278.945Z" stroke="#FFFFFF" stroke-width="55" stroke-linecap="round" stroke-linejoin="round" stroke-miterlimit="10" fill="none" fill-rule="evenodd"/><path d="M2075.06 403.567C2150.02 363.247 2195.57 330.006 2217.01 371.817 2241.6 419.772 2191.34 437.99 2149.9 459.344 2078.88 495.941 2087.52 511.232 2126.67 577.762 2161.4 636.771 2167.85 652.996 2134.42 678.161 2106.03 699.522 2093.56 701.112 2027.74 588.059 1967.62 484.795 1971.5 459.263 2075.06 403.567Z" stroke="#FFFFFF" stroke-width="55" stroke-linecap="round" stroke-linejoin="round" stroke-miterlimit="10" fill="none" fill-rule="evenodd"/><path d="M1951.28 627.687C1991.72 702.336 2025.06 747.687 1983.13 769.035 1935.03 793.519 1916.76 743.481 1895.34 702.216 1858.63 631.497 1843.3 640.1 1776.57 679.086 1717.39 713.665 1701.11 720.089 1675.87 686.796 1654.45 658.535 1652.85 646.108 1766.24 580.571 1869.81 520.708 1895.42 524.572 1951.28 627.687Z" stroke="#FFFFFF" stroke-width="55" stroke-linecap="round" stroke-linejoin="round" stroke-miterlimit="10" fill="none" fill-rule="evenodd"/><path d="M1726.94 502.281C1651.98 542.721 1606.43 576.06 1584.99 534.125 1560.4 486.028 1610.66 467.756 1652.1 446.339 1723.12 409.633 1714.48 394.297 1675.33 327.569 1640.6 268.385 1634.15 252.112 1667.58 226.873 1695.97 205.449 1708.44 203.854 1774.26 317.241 1834.38 420.812 1830.5 446.42 1726.94 502.281Z" stroke="#FFFFFF" stroke-width="55" stroke-linecap="round" stroke-linejoin="round" stroke-miterlimit="10" fill="none" fill-rule="evenodd"/><path d="M1850.57 278.945C1810.25 203.976 1777.01 158.432 1818.82 136.993 1866.77 112.404 1884.99 162.656 1906.34 204.097 1942.94 275.119 1958.23 266.479 2024.76 227.326 2083.77 192.599 2100 186.148 2125.16 219.583 2146.52 247.965 2148.11 260.445 2035.06 326.262 1931.8 386.381 1906.26 382.5 1850.57 278.945Z" stroke="#825149" stroke-width="20.625" stroke-linecap="round" stroke-linejoin="round" stroke-miterlimit="10" fill="url(#fill1)" fill-rule="evenodd"/><path d="M2075.06 403.567C2150.02 363.247 2195.57 330.006 2217.01 371.817 2241.6 419.772 2191.34 437.99 2149.9 459.344 2078.88 495.941 2087.52 511.232 2126.67 577.762 2161.4 636.771 2167.85 652.996 2134.42 678.161 2106.03 699.522 2093.56 701.112 2027.74 588.059 1967.62 484.795 1971.5 459.263 2075.06 403.567Z" stroke="#825149" stroke-width="20.625" stroke-linecap="round" stroke-linejoin="round" stroke-miterlimit="10" fill="url(#fill2)" fill-rule="evenodd"/><path d="M1951.28 627.687C1991.72 702.336 2025.06 747.687 1983.13 769.035 1935.03 793.519 1916.76 743.481 1895.34 702.216 1858.63 631.497 1843.3 640.1 1776.57 679.086 1717.39 713.665 1701.11 720.089 1675.87 686.796 1654.45 658.535 1652.85 646.108 1766.24 580.571 1869.81 520.708 1895.42 524.572 1951.28 627.687Z" stroke="#825149" stroke-width="20.625" stroke-linecap="round" stroke-linejoin="round" stroke-miterlimit="10" fill="url(#fill3)" fill-rule="evenodd"/><path d="M1726.94 502.281C1651.98 542.721 1606.43 576.06 1584.99 534.125 1560.4 486.028 1610.66 467.756 1652.1 446.339 1723.12 409.633 1714.48 394.297 1675.33 327.569 1640.6 268.385 1634.15 252.112 1667.58 226.873 1695.97 205.449 1708.44 203.854 1774.26 317.241 1834.38 420.812 1830.5 446.42 1726.94 502.281Z" stroke="#825149" stroke-width="20.625" stroke-linecap="round" stroke-linejoin="round" stroke-miterlimit="10" fill="url(#fill4)" fill-rule="evenodd"/></g></svg>