<svg width="804" height="805" xmlns="http://www.w3.org/2000/svg" xmlns:xlink="http://www.w3.org/1999/xlink" xml:space="preserve" overflow="hidden"><defs><clipPath id="clip0"><rect x="860" y="1175" width="804" height="805"/></clipPath><linearGradient x1="1263" y1="1222.5" x2="1263" y2="1934.5" gradientUnits="userSpaceOnUse" spreadMethod="reflect" id="fill1"><stop offset="0" stop-color="#FBB47C"/><stop offset="0.01" stop-color="#FBB47C"/><stop offset="0.99" stop-color="#F26980"/><stop offset="1" stop-color="#F26980"/></linearGradient><linearGradient x1="1263" y1="1222.5" x2="1263" y2="1934.5" gradientUnits="userSpaceOnUse" spreadMethod="reflect" id="fill2"><stop offset="0" stop-color="#FBB47C"/><stop offset="0.01" stop-color="#FBB47C"/><stop offset="0.99" stop-color="#F26980"/><stop offset="1" stop-color="#F26980"/></linearGradient></defs><g clip-path="url(#clip0)" transform="translate(-860 -1175)"><rect x="860" y="1175" width="804" height="805" fill="#FFFFFF" fill-opacity="0"/><path d="M1165.5 1872.5C1165.5 1838.26 1193.48 1810.5 1228 1810.5 1262.52 1810.5 1290.5 1838.26 1290.5 1872.5 1290.5 1906.74 1262.52 1934.5 1228 1934.5 1193.48 1934.5 1165.5 1906.74 1165.5 1872.5Z" stroke="#FFFFFF" stroke-width="55" stroke-linecap="round" stroke-linejoin="round" stroke-miterlimit="10" fill="none" fill-rule="evenodd"/><path d="M1275.46 1755.3C1251.63 1771.98 1182.45 1769.22 1176.37 1739.44 1165.38 1685.53 1181.86 1547.73 1268.18 1498.17 1321.79 1467.38 1339.24 1450.75 1338.58 1405.99 1337.92 1361.23 1301.67 1340.44 1248.76 1342.92 1162.44 1346.97 1127.86 1434.44 1093.38 1415.69 1040.6 1386.99 1056.59 1307.86 1171.07 1245.89 1265.74 1194.64 1400.5 1229.31 1445.4 1333.22 1490.3 1437.13 1434.9 1524.82 1358 1575.79 1258.43 1641.8 1287.51 1658.55 1275.46 1755.3Z" stroke="#FFFFFF" stroke-width="55" stroke-linecap="round" stroke-linejoin="round" stroke-miterlimit="10" fill="none" fill-rule="evenodd"/><path d="M1165.5 1872.5C1165.5 1838.26 1193.48 1810.5 1228 1810.5 1262.52 1810.5 1290.5 1838.26 1290.5 1872.5 1290.5 1906.74 1262.52 1934.5 1228 1934.5 1193.48 1934.5 1165.5 1906.74 1165.5 1872.5Z" stroke="#682F2C" stroke-width="20.625" stroke-linecap="round" stroke-linejoin="round" stroke-miterlimit="10" fill="url(#fill1)" fill-rule="evenodd"/><path d="M1275.46 1755.3C1251.63 1771.98 1182.45 1769.22 1176.37 1739.44 1165.38 1685.53 1181.86 1547.73 1268.18 1498.17 1321.79 1467.38 1339.24 1450.75 1338.58 1405.99 1337.92 1361.23 1301.67 1340.44 1248.76 1342.92 1162.44 1346.97 1127.86 1434.44 1093.38 1415.69 1040.6 1386.99 1056.59 1307.86 1171.07 1245.89 1265.74 1194.64 1400.5 1229.31 1445.4 1333.22 1490.3 1437.13 1434.9 1524.82 1358 1575.79 1258.43 1641.8 1287.51 1658.55 1275.46 1755.3Z" stroke="#682F2C" stroke-width="20.625" stroke-linecap="round" stroke-linejoin="round" stroke-miterlimit="10" fill="url(#fill2)" fill-rule="evenodd"/></g></svg>