<svg width="651" height="651" xmlns="http://www.w3.org/2000/svg" xmlns:xlink="http://www.w3.org/1999/xlink" xml:space="preserve" overflow="hidden"><defs><clipPath id="clip0"><rect x="1197" y="859" width="651" height="651"/></clipPath><linearGradient x1="1275.31" y1="949.29" x2="1769.69" y2="1419.71" gradientUnits="userSpaceOnUse" spreadMethod="reflect" id="fill1"><stop offset="0" stop-color="#F55850"/><stop offset="0.99" stop-color="#E93B44"/><stop offset="1" stop-color="#E93B44"/></linearGradient><linearGradient x1="1275.31" y1="949.29" x2="1769.69" y2="1419.71" gradientUnits="userSpaceOnUse" spreadMethod="reflect" id="fill2"><stop offset="0" stop-color="#F55850"/><stop offset="0.99" stop-color="#E93B44"/><stop offset="1" stop-color="#E93B44"/></linearGradient><linearGradient x1="1275.31" y1="949.29" x2="1769.69" y2="1419.71" gradientUnits="userSpaceOnUse" spreadMethod="reflect" id="fill3"><stop offset="0" stop-color="#F55850"/><stop offset="0.99" stop-color="#E93B44"/><stop offset="1" stop-color="#E93B44"/></linearGradient><linearGradient x1="1275.31" y1="949.29" x2="1769.69" y2="1419.71" gradientUnits="userSpaceOnUse" spreadMethod="reflect" id="fill4"><stop offset="0" stop-color="#F55850"/><stop offset="0.99" stop-color="#E93B44"/><stop offset="1" stop-color="#E93B44"/></linearGradient></defs><g clip-path="url(#clip0)" transform="translate(-1197 -859)"><rect x="1197" y="859" width="651" height="651" fill="#000000" fill-opacity="0"/><path d="M1531.39 1134.67C1484.17 1088.65 1462.7 1043.5 1479.87 952.616 1513.08 935.647 1534.26 935.934 1571.75 937.948 1558.87 981.952 1550.28 1005.25 1566.6 1041.49 1590.07 1013.01 1610.1 993.169 1642.16 974.187 1689.39 1016.75 1757.76 1038.83 1628.42 1105.34 1601.42 1119.22 1558.73 1137.69 1531.39 1134.67Z" stroke="#FFFFFF" stroke-width="27.5" stroke-linecap="round" stroke-linejoin="round" stroke-miterlimit="10" fill="none" fill-rule="evenodd"/><path d="M1287.32 1139.38C1323.71 1128.2 1366.11 1132.5 1411.96 1121.32 1376.43 1104.68 1349.5 1091.49 1318.26 1061.1 1326.86 1035.29 1341.47 1013.79 1375 994 1431.3 1022.1 1488.9 1110.28 1485.89 1141.96 1481.85 1184.53 1390.9 1243.9 1305.37 1240.89 1290.76 1211.36 1285.6 1186.12 1287.32 1139.38Z" stroke="#FFFFFF" stroke-width="27.5" stroke-linecap="round" stroke-linejoin="round" stroke-miterlimit="10" fill="none" fill-rule="evenodd"/><path d="M1339 1309.38C1386.53 1253.66 1477.54 1223.31 1514.78 1228.59 1569.16 1236.3 1590.46 1379.86 1553.55 1426.27 1533.16 1430.85 1516.21 1434.58 1494.96 1429.71 1484.62 1392.18 1496.68 1347.77 1492.37 1322.27 1463.36 1355.22 1440.39 1375.27 1410.52 1387.59 1374.61 1372.7 1349.91 1345.77 1339 1309.38Z" stroke="#FFFFFF" stroke-width="27.5" stroke-linecap="round" stroke-linejoin="round" stroke-miterlimit="10" fill="none" fill-rule="evenodd"/><path d="M1660.63 1238.06C1704.75 1237.77 1726.52 1235.77 1754.31 1221.73 1764.33 1178.17 1752.88 1152.67 1732.82 1122.01 1682.69 1121.01 1576.76 1179.25 1572.11 1205.39 1562.06 1261.91 1621.67 1351.96 1686.41 1367 1729.67 1348.38 1735.97 1317.72 1733.68 1300.81 1699.88 1285.05 1671.23 1264.13 1660.63 1238.06Z" stroke="#FFFFFF" stroke-width="27.5" stroke-linecap="round" stroke-linejoin="round" stroke-miterlimit="10" fill="none" fill-rule="evenodd"/><path d="M1531.39 1134.67C1484.17 1088.65 1462.7 1043.5 1479.87 952.616 1513.08 935.647 1534.26 935.934 1571.75 937.948 1558.87 981.952 1550.28 1005.25 1566.6 1041.49 1590.07 1013.01 1610.1 993.169 1642.16 974.187 1689.39 1016.75 1757.76 1038.83 1628.42 1105.34 1601.42 1119.22 1558.73 1137.69 1531.39 1134.67Z" fill="url(#fill1)" fill-rule="evenodd"/><path d="M1287.32 1139.38C1323.71 1128.2 1366.11 1132.5 1411.96 1121.32 1376.43 1104.68 1349.5 1091.49 1318.26 1061.1 1326.86 1035.29 1341.47 1013.79 1375 994 1431.3 1022.1 1488.9 1110.28 1485.89 1141.96 1481.85 1184.53 1390.9 1243.9 1305.37 1240.89 1290.76 1211.36 1285.6 1186.12 1287.32 1139.38Z" fill="url(#fill2)" fill-rule="evenodd"/><path d="M1339 1309.38C1386.53 1253.66 1477.54 1223.31 1514.78 1228.59 1569.16 1236.3 1590.46 1379.86 1553.55 1426.27 1533.16 1430.85 1516.21 1434.58 1494.96 1429.71 1484.62 1392.18 1496.68 1347.77 1492.37 1322.27 1463.36 1355.22 1440.39 1375.27 1410.52 1387.59 1374.61 1372.7 1349.91 1345.77 1339 1309.38Z" fill="url(#fill3)" fill-rule="evenodd"/><path d="M1660.63 1238.06C1704.75 1237.77 1726.52 1235.77 1754.31 1221.73 1764.33 1178.17 1752.88 1152.67 1732.82 1122.01 1682.69 1121.01 1576.76 1179.25 1572.11 1205.39 1562.06 1261.91 1621.67 1351.96 1686.41 1367 1729.67 1348.38 1735.97 1317.72 1733.68 1300.81 1699.88 1285.05 1671.23 1264.13 1660.63 1238.06Z" fill="url(#fill4)" fill-rule="evenodd"/><path d="M1512.43 941 1507.56 948.115C1481.01 994.306 1489.03 1035.79 1515.25 1113.84L1516 1116 1501.07 1098.9C1475.85 1062.73 1466.98 1020.53 1479.89 952.751 1488.21 948.532 1495.78 945.386 1503.03 943.072Z" fill="#FF8A73" fill-rule="evenodd"/><path d="M1389 1125.43 1372.72 1132.45C1349.69 1141.22 1328.11 1146.12 1303.64 1151.49 1302.35 1183.12 1300.58 1206.52 1304.84 1231.49L1307.22 1240.9 1305.35 1241C1290.75 1211.45 1285.6 1186.21 1287.32 1139.45 1314.59 1131.06 1345.24 1131.38 1378.18 1127.34ZM1374.92 994 1378.86 996.461 1367.62 1009.49C1355.74 1023.26 1344.29 1037.89 1334.55 1055.97 1344.86 1067.01 1353.24 1077.84 1362.58 1088.78L1375.77 1103.22 1363.43 1096.41C1348.37 1087.23 1333.84 1076.33 1318.24 1061.13 1326.83 1035.31 1341.43 1013.79 1374.92 994Z" fill="#FF8A73" fill-rule="evenodd"/><path d="M1420 1251 1403.24 1270.04C1388.22 1285.55 1371.48 1301.38 1358.83 1319.79 1379.1 1348.5 1393.05 1365.07 1411.62 1381.51L1416.1 1385.19 1410.57 1388C1374.64 1373.04 1349.92 1345.98 1339 1309.43 1356.84 1288.44 1380.79 1271.04 1405.73 1257.76Z" fill="#FF8A73" fill-rule="evenodd"/><path d="M1531.89 1135.17C1484.67 1089.15 1463.2 1044 1480.37 953.116 1513.58 936.147 1534.76 936.434 1572.25 938.447 1559.37 982.452 1550.78 1005.75 1567.1 1041.99 1590.57 1013.51 1610.6 993.668 1642.66 974.686 1689.89 1017.25 1758.27 1039.33 1628.92 1105.84 1601.92 1119.72 1559.23 1138.19 1531.89 1135.17Z" stroke="#5D181A" stroke-width="9.16667" stroke-linecap="round" stroke-linejoin="round" stroke-miterlimit="10" fill="none" fill-rule="evenodd"/><path d="M1287.82 1139.88C1324.21 1128.7 1366.61 1133 1412.46 1121.82 1376.93 1105.18 1350 1091.99 1318.76 1061.6 1327.36 1035.79 1341.97 1014.29 1375.5 994.5 1431.8 1022.6 1489.4 1110.78 1486.39 1142.46 1482.35 1185.03 1391.4 1244.4 1305.87 1241.39 1291.26 1211.86 1286.1 1186.62 1287.82 1139.88Z" stroke="#5D181A" stroke-width="9.16667" stroke-linecap="round" stroke-linejoin="round" stroke-miterlimit="10" fill="none" fill-rule="evenodd"/><path d="M1339.5 1309.88C1387.03 1254.16 1478.04 1223.81 1515.28 1229.09 1569.66 1236.8 1590.96 1380.36 1554.05 1426.77 1533.66 1431.35 1516.71 1435.08 1495.46 1430.21 1485.12 1392.68 1497.18 1348.27 1492.87 1322.77 1463.87 1355.72 1440.89 1375.77 1411.02 1388.09 1375.12 1373.2 1350.41 1346.27 1339.5 1309.88Z" stroke="#5D181A" stroke-width="9.16667" stroke-linecap="round" stroke-linejoin="round" stroke-miterlimit="10" fill="none" fill-rule="evenodd"/><path d="M1661.13 1238.56C1705.25 1238.27 1727.02 1236.27 1754.81 1222.23 1764.83 1178.67 1753.38 1153.17 1733.32 1122.51 1683.19 1121.51 1577.26 1179.75 1572.61 1205.89 1562.56 1262.41 1622.17 1352.46 1686.91 1367.5 1730.17 1348.88 1736.47 1318.22 1734.18 1301.31 1700.38 1285.55 1671.73 1264.63 1661.13 1238.56Z" stroke="#5D181A" stroke-width="9.16667" stroke-linecap="round" stroke-linejoin="round" stroke-miterlimit="10" fill="none" fill-rule="evenodd"/></g></svg>