<svg width="651" height="651" xmlns="http://www.w3.org/2000/svg" xmlns:xlink="http://www.w3.org/1999/xlink" xml:space="preserve" overflow="hidden"><defs><clipPath id="clip0"><rect x="1031" y="0" width="651" height="651"/></clipPath><linearGradient x1="1477.15" y1="432.25" x2="1237.85" y2="219.751" gradientUnits="userSpaceOnUse" spreadMethod="reflect" id="fill1"><stop offset="0" stop-color="#FFF133"/><stop offset="0.28" stop-color="#FFF133"/><stop offset="0.75" stop-color="#FFBA30"/><stop offset="1" stop-color="#FFBA30"/></linearGradient><linearGradient x1="1477.15" y1="432.25" x2="1237.85" y2="219.751" gradientUnits="userSpaceOnUse" spreadMethod="reflect" id="fill2"><stop offset="0" stop-color="#FFF133"/><stop offset="0.28" stop-color="#FFF133"/><stop offset="0.75" stop-color="#FFBA30"/><stop offset="1" stop-color="#FFBA30"/></linearGradient></defs><g clip-path="url(#clip0)" transform="translate(-1031 0)"><rect x="1031" y="0" width="651" height="651" fill="#000000" fill-opacity="0"/><path d="M1464 319.497C1443.1 326.054 1422.2 336.034 1406.45 352 1256.28 279.439 1225.93 236.672 1336.02 212.58 1359.67 207.404 1392.85 201.603 1412.46 207.447 1441.67 247.363 1451.97 274.449 1464 319.497Z" stroke="#FFFFFF" stroke-width="27.5" stroke-linecap="round" stroke-linejoin="round" stroke-miterlimit="10" fill="none" fill-rule="evenodd"/><path d="M1380.69 395.398 1385 436.715C1339.94 447.331 1300.91 449.339 1252.4 440.158 1246.23 378.614 1246.52 371.01 1322.14 382.487 1344.54 385.885 1365.05 388.082 1380.69 395.398Z" stroke="#FFFFFF" stroke-width="27.5" stroke-linecap="round" stroke-linejoin="round" stroke-miterlimit="10" fill="none" fill-rule="evenodd"/><path d="M1464.5 319.997C1443.6 326.554 1422.7 336.534 1406.95 352.5 1256.78 279.939 1226.43 237.172 1336.52 213.08 1360.17 207.904 1393.35 202.103 1412.96 207.948 1442.17 247.864 1452.47 274.95 1464.5 319.997Z" stroke="#612A20" stroke-width="9.16667" stroke-linecap="round" stroke-linejoin="round" stroke-miterlimit="10" fill="url(#fill1)" fill-rule="evenodd"/><path d="M1381.19 395.899 1385.5 437.215C1340.44 447.831 1301.41 449.84 1252.9 440.658 1246.73 379.114 1247.02 371.51 1322.64 382.987 1345.04 386.385 1365.55 388.582 1381.19 395.899Z" stroke="#612A20" stroke-width="9.16667" stroke-linecap="round" stroke-linejoin="round" stroke-miterlimit="10" fill="url(#fill2)" fill-rule="evenodd"/></g></svg>