<svg width="651" height="651" xmlns="http://www.w3.org/2000/svg" xmlns:xlink="http://www.w3.org/1999/xlink" xml:space="preserve" overflow="hidden"><defs><clipPath id="clip0"><rect x="0" y="0" width="651" height="651"/></clipPath><linearGradient x1="325.5" y1="447" x2="325.5" y2="78.9998" gradientUnits="userSpaceOnUse" spreadMethod="reflect" id="fill1"><stop offset="0" stop-color="#FFD162"/><stop offset="0.01" stop-color="#FFD162"/><stop offset="0.99" stop-color="#FFB344"/><stop offset="1" stop-color="#FFB344"/></linearGradient></defs><g clip-path="url(#clip0)"><rect x="0" y="0" width="651" height="651" fill="#000000" fill-opacity="0"/><path d="M271.006 531.672C270.61 518.024 289.325 489.573 322.932 489.004 340.104 488.714 374.544 504.436 373.994 528.258 373.287 558.846 358.992 568.65 322.932 570.925 305.793 572.007 271.871 561.539 271.006 531.672Z" stroke="#FFFFFF" stroke-width="27.5" stroke-linecap="round" stroke-linejoin="round" stroke-miterlimit="10" fill="none" fill-rule="evenodd"/><path d="M271.006 531.672C270.61 518.024 289.325 489.573 322.932 489.004 340.104 488.714 374.544 504.436 373.994 528.258 373.287 558.846 358.992 568.65 322.932 570.925 305.793 572.007 271.871 561.539 271.006 531.672Z" fill="#FFD062" fill-rule="evenodd"/><path d="M323.393 489.005C336.182 488.784 358.618 497.674 368.805 512.297L370 516 363.076 510.772C349.929 503.822 334.057 499.92 323.496 500.067 313.16 500.211 303.97 502.117 296.006 505.111L278 515.461 284.948 505.621C293.716 496.63 306.706 489.292 323.393 489.005Z" fill="#FFDF6F" fill-rule="evenodd"/><path d="M271.506 532.172C271.11 518.524 289.825 490.073 323.432 489.504 340.604 489.214 375.044 504.936 374.494 528.758 373.787 559.346 359.492 569.15 323.432 571.425 306.293 572.507 272.371 562.039 271.506 532.172Z" stroke="#4C171C" stroke-width="9.16667" stroke-linecap="round" stroke-linejoin="round" stroke-miterlimit="10" fill="none" fill-rule="evenodd"/><path d="M367.009 444.419C329.819 441.839 306.361 444.419 258.014 447 238.561 353.82 231.981 249.459 233.125 126.175 284.19 78.295 372.207 63.3256 394.473 97.7907 451.158 185.533 390.61 280.423 367.009 444.419Z" stroke="#FFFFFF" stroke-width="27.5" stroke-linecap="round" stroke-linejoin="round" stroke-miterlimit="10" fill="none" fill-rule="evenodd"/><path d="M367.009 444.419C329.819 441.839 306.361 444.419 258.014 447 238.561 353.82 231.981 249.459 233.125 126.175 284.19 78.295 372.207 63.3256 394.473 97.7907 451.158 185.533 390.61 280.423 367.009 444.419Z" fill="url(#fill1)" fill-rule="evenodd"/><path d="M404.091 272 405.253 254.087C413.515 64.968 357.216 77.0071 266.759 125.698L233.138 144.373 233 126.119C284.099 78.2958 372.176 63.3442 394.457 97.7684 422.818 141.587 421.852 187.191 410.843 242.316Z" fill="#FFCF5F" fill-rule="evenodd"/><path d="M367.509 444.92C330.319 442.339 306.861 444.92 258.514 447.5 239.06 354.32 232.481 249.959 233.625 126.675 284.69 78.7948 372.707 63.8253 394.973 98.2906 451.657 186.033 391.11 280.923 367.509 444.92Z" stroke="#4C171C" stroke-width="9.16667" stroke-linecap="round" stroke-linejoin="round" stroke-miterlimit="10" fill="none" fill-rule="evenodd"/></g></svg>