<svg width="651" height="651" xmlns="http://www.w3.org/2000/svg" xmlns:xlink="http://www.w3.org/1999/xlink" xml:space="preserve" overflow="hidden"><defs><clipPath id="clip0"><rect x="0" y="859" width="651" height="651"/></clipPath><linearGradient x1="439.5" y1="968" x2="439.5" y2="1401" gradientUnits="userSpaceOnUse" spreadMethod="reflect" id="fill1"><stop offset="0" stop-color="#FFC649"/><stop offset="0.99" stop-color="#FE9251"/><stop offset="1" stop-color="#FE9251"/></linearGradient><linearGradient x1="439.5" y1="968" x2="439.5" y2="1401" gradientUnits="userSpaceOnUse" spreadMethod="reflect" id="fill2"><stop offset="0" stop-color="#FFC649"/><stop offset="0.99" stop-color="#FE9251"/><stop offset="1" stop-color="#FE9251"/></linearGradient><linearGradient x1="163.5" y1="983" x2="163.5" y2="1401" gradientUnits="userSpaceOnUse" spreadMethod="reflect" id="fill3"><stop offset="0" stop-color="#FFC649"/><stop offset="0.99" stop-color="#FE9251"/><stop offset="1" stop-color="#FE9251"/></linearGradient><linearGradient x1="163.5" y1="983" x2="163.5" y2="1401" gradientUnits="userSpaceOnUse" spreadMethod="reflect" id="fill4"><stop offset="0" stop-color="#FFC649"/><stop offset="0.99" stop-color="#FE9251"/><stop offset="1" stop-color="#FE9251"/></linearGradient></defs><g clip-path="url(#clip0)" transform="matrix(1 0 0 1 0 -859)"><rect x="0" y="859" width="651" height="651" fill="#000000" fill-opacity="0"/><path d="M362.251 1315.56 419.059 1319C433.404 1290.31 441.725 1271.09 451.766 1232.93 522.489 1221.89 557.205 1182.87 574.85 1108.13 592.495 1033.4 498.246 952.924 413.034 970.424 327.822 987.925 303.722 1040.71 302 1092.64 321.51 1104.98 342.741 1106.99 363.111 1114.16 364.833 1058.79 438.945 1035.27 462.095 1059.94 518.07 1119.58 453.774 1169.67 413.894 1181.29 369.98 1194.09 353.5 1200.37 362.251 1315.56Z" stroke="#FFFFFF" stroke-width="27.5" stroke-linecap="round" stroke-linejoin="round" stroke-miterlimit="10" fill="none" fill-rule="evenodd"/><path d="M355 1367.5C355 1349 368.879 1334 386 1334 403.121 1334 417 1349 417 1367.5 417 1386 403.121 1401 386 1401 368.879 1401 355 1386 355 1367.5Z" stroke="#FFFFFF" stroke-width="27.5" stroke-linecap="round" stroke-linejoin="round" stroke-miterlimit="10" fill="none" fill-rule="evenodd"/><path d="M362.251 1315.56 419.059 1319C433.404 1290.31 441.725 1271.09 451.766 1232.93 522.489 1221.89 557.205 1182.87 574.85 1108.13 592.495 1033.4 498.246 952.924 413.034 970.424 327.822 987.925 303.722 1040.71 302 1092.64 321.51 1104.98 342.741 1106.99 363.111 1114.16 364.833 1058.79 438.945 1035.27 462.095 1059.94 518.07 1119.58 453.774 1169.67 413.894 1181.29 369.98 1194.09 353.5 1200.37 362.251 1315.56Z" fill="url(#fill1)" fill-rule="evenodd"/><path d="M355 1367.5C355 1349 368.879 1334 386 1334 403.121 1334 417 1349 417 1367.5 417 1386 403.121 1401 386 1401 368.879 1401 355 1386 355 1367.5Z" fill="url(#fill2)" fill-rule="evenodd"/><path d="M445.257 968.252C520.095 972.965 590.281 1042.93 574.852 1108.49L573.667 1112 561.012 1077.71C511.743 977.158 412.714 950.229 320.678 1038.58L310 1049.94 315.582 1035.94C330.543 1006.18 359.91 981.396 413.135 970.43 423.78 968.237 434.566 967.579 445.257 968.252Z" fill="#FFF195" fill-rule="evenodd"/><path d="M385.59 1334C402.937 1334 417 1348.96 417 1367.42L415.562 1375 414.059 1367.24C408.376 1353.25 395.072 1343.43 379.566 1343.43 374.397 1343.43 369.474 1344.52 364.995 1346.49L359 1350.7 363.38 1343.79C369.063 1337.74 376.916 1334 385.59 1334Z" fill="#FFF195" fill-rule="evenodd"/><path d="M362.751 1316.06 419.559 1319.5C433.904 1290.81 442.224 1271.59 452.266 1233.43 522.989 1222.39 557.705 1183.37 575.35 1108.63 592.995 1033.9 498.746 953.423 413.534 970.924 328.322 988.425 304.222 1041.21 302.5 1093.14 322.01 1105.48 343.241 1107.49 363.611 1114.66 365.333 1059.29 439.445 1035.77 462.595 1060.43 518.569 1120.08 454.274 1170.17 414.394 1181.79 370.48 1194.59 354 1200.87 362.751 1316.06Z" stroke="#612923" stroke-width="9.16667" stroke-linecap="round" stroke-linejoin="round" stroke-miterlimit="10" fill="none" fill-rule="evenodd"/><path d="M355.5 1368C355.5 1349.5 369.379 1334.5 386.5 1334.5 403.621 1334.5 417.5 1349.5 417.5 1368 417.5 1386.5 403.621 1401.5 386.5 1401.5 369.379 1401.5 355.5 1386.5 355.5 1368Z" stroke="#612923" stroke-width="9.16667" stroke-linecap="round" stroke-linejoin="round" stroke-miterlimit="10" fill="none" fill-rule="evenodd"/><path d="M150.522 1307.52C182.621 1308.1 200.963 1309.53 226.184 1301.51 252.838 1194.39 264.015 1072.67 239.081 985.321 174.596 978.447 116.13 987.039 73.9999 1008.52 76.2931 1109.05 102.659 1227.62 150.522 1307.52Z" stroke="#FFFFFF" stroke-width="27.5" stroke-linecap="round" stroke-linejoin="round" stroke-miterlimit="10" fill="none" fill-rule="evenodd"/><path d="M157 1366.5C157 1347.45 174.013 1332 195 1332 215.987 1332 233 1347.45 233 1366.5 233 1385.55 215.987 1401 195 1401 174.013 1401 157 1385.55 157 1366.5Z" stroke="#FFFFFF" stroke-width="27.5" stroke-linecap="round" stroke-linejoin="round" stroke-miterlimit="10" fill="none" fill-rule="evenodd"/><path d="M150.522 1307.52C182.621 1308.1 200.963 1309.53 226.184 1301.51 252.838 1194.39 264.015 1072.67 239.081 985.321 174.596 978.447 116.13 987.039 73.9999 1008.52 76.2931 1109.05 102.659 1227.62 150.522 1307.52Z" fill="url(#fill3)" fill-rule="evenodd"/><path d="M157 1366.5C157 1347.45 174.013 1332 195 1332 215.987 1332 233 1347.45 233 1366.5 233 1385.55 215.987 1401 195 1401 174.013 1401 157 1385.55 157 1366.5Z" fill="url(#fill4)" fill-rule="evenodd"/><path d="M192.025 983.025C207.235 982.851 222.983 983.6 239.106 985.312L244 1007.01 220.013 998.793C190.534 992.944 156.486 993.943 119.482 1001.79L74.525 1015 73.9999 1008.42C105.603 992.373 146.395 983.546 192.025 983.025Z" fill="#FFF195" fill-rule="evenodd"/><path d="M195.47 1332C211.111 1332 224.53 1340.79 230.262 1353.32L231 1356.7 215.63 1348.09C209.829 1346.06 203.452 1344.93 196.757 1344.93 183.368 1344.93 171.246 1349.44 162.471 1356.72L159 1361 160.677 1353.32C166.409 1340.79 179.829 1332 195.47 1332Z" fill="#FFF195" fill-rule="evenodd"/><path d="M151.022 1308.02C183.121 1308.6 201.463 1310.03 226.684 1302.01 253.337 1194.89 264.515 1073.17 239.581 985.82 175.096 978.946 116.63 987.539 74.5001 1009.02 76.7932 1109.55 103.16 1228.12 151.022 1308.02Z" stroke="#612923" stroke-width="9.16667" stroke-linecap="round" stroke-linejoin="round" stroke-miterlimit="10" fill="none" fill-rule="evenodd"/><path d="M157.5 1367C157.5 1347.95 174.513 1332.5 195.5 1332.5 216.487 1332.5 233.5 1347.95 233.5 1367 233.5 1386.05 216.487 1401.5 195.5 1401.5 174.513 1401.5 157.5 1386.05 157.5 1367Z" stroke="#612923" stroke-width="9.16667" stroke-linecap="round" stroke-linejoin="round" stroke-miterlimit="10" fill="none" fill-rule="evenodd"/></g></svg>