<svg width="651" height="651" xmlns="http://www.w3.org/2000/svg" xmlns:xlink="http://www.w3.org/1999/xlink" xml:space="preserve" overflow="hidden"><defs><clipPath id="clip0"><rect x="1810" y="859" width="651" height="651"/></clipPath><linearGradient x1="1901.77" y1="939.782" x2="2369.23" y2="1430.22" gradientUnits="userSpaceOnUse" spreadMethod="reflect" id="fill1"><stop offset="0" stop-color="#E44F36"/><stop offset="0.32" stop-color="#E44F36"/><stop offset="0.99" stop-color="#FC915E"/><stop offset="1" stop-color="#FC915E"/></linearGradient></defs><g clip-path="url(#clip0)" transform="translate(-1810 -859)"><rect x="1810" y="859" width="651" height="651" fill="#000000" fill-opacity="0"/><path d="M2374.99 1289.33C2324.63 1231.51 2316.33 1175.41 2381 1051.47 2329.5 1054.62 2296.02 1035.44 2257.39 965.598 2192.15 1024.28 2117.47 1013.4 2025.63 951 2033.64 1070.65 1986.71 1125.03 1890 1214.63 1966.68 1233.23 2063.11 1287.9 2037.64 1412.13 2096.01 1380.07 2145.8 1372.06 2194.73 1419 2229.92 1376.64 2260.83 1331.7 2374.99 1289.33Z" stroke="#FFFFFF" stroke-width="27.5" stroke-linecap="round" stroke-linejoin="round" stroke-miterlimit="10" fill="none" fill-rule="evenodd"/><path d="M2374.99 1289.33C2324.63 1231.51 2316.33 1175.41 2381 1051.47 2329.5 1054.62 2296.02 1035.44 2257.39 965.598 2192.15 1024.28 2117.47 1013.4 2025.63 951 2033.64 1070.65 1986.71 1125.03 1890 1214.63 1966.68 1233.23 2063.11 1287.9 2037.64 1412.13 2096.01 1380.07 2145.8 1372.06 2194.73 1419 2229.92 1376.64 2260.83 1331.7 2374.99 1289.33Z" fill="url(#fill1)" fill-rule="evenodd"/><path d="M2375.49 1289.83C2325.13 1232.01 2316.83 1175.91 2381.5 1051.97 2330 1055.12 2296.52 1035.94 2257.89 966.098 2192.65 1024.78 2117.97 1013.9 2026.13 951.5 2034.14 1071.15 1987.21 1125.53 1890.5 1215.13 1967.18 1233.73 2063.61 1288.4 2038.14 1412.63 2096.51 1380.57 2146.3 1372.56 2195.23 1419.5" stroke="#74221E" stroke-width="9.16667" stroke-linecap="round" stroke-linejoin="round" stroke-miterlimit="10" fill="none" fill-rule="evenodd"/></g></svg>