<svg width="650" height="651" xmlns="http://www.w3.org/2000/svg" xmlns:xlink="http://www.w3.org/1999/xlink" xml:space="preserve" overflow="hidden"><defs><clipPath id="clip0"><rect x="2065" y="1636" width="650" height="651"/></clipPath></defs><g clip-path="url(#clip0)" transform="translate(-2065 -1636)"><rect x="2065" y="1636" width="650" height="651" fill="#000000" fill-opacity="0"/><path d="M2448.5 1931.5C2515.12 1874.57 2559.44 1854.54 2635.5 1822.5" stroke="#FFFFFF" stroke-width="41.25" stroke-linecap="round" stroke-linejoin="round" stroke-miterlimit="10" fill="none" fill-rule="evenodd"/><path d="M2522.5 1945.5C2545.36 1929.31 2565.64 1916.48 2588.5 1909.5" stroke="#FFFFFF" stroke-width="41.25" stroke-linecap="round" stroke-linejoin="round" stroke-miterlimit="10" fill="none" fill-rule="evenodd"/><path d="M2521.66 1873.48C2623.01 2000.05 2603.26 2048.44 2570.62 2057.32 2565.46 2157.54 2447.8 2193.33 2382.52 2144.08 2352.74 2158.97 2330.7 2141.22 2324.11 2103.71 2140.6 2228.27 2060.15 1837.4 2268.29 1864.03 2282.32 1741.48 2373.64 1740.9 2457.24 1779.85 2488.16 1766.39 2524.24 1806.19 2521.66 1873.48Z" stroke="#FFFFFF" stroke-width="27.5" stroke-linecap="round" stroke-linejoin="round" stroke-miterlimit="10" fill="none" fill-rule="evenodd"/><path d="M2521.66 1873.48C2623.01 2000.05 2603.26 2048.44 2570.62 2057.32 2565.46 2157.54 2447.8 2193.33 2382.52 2144.08 2352.74 2158.97 2330.7 2141.22 2324.11 2103.71 2140.6 2228.27 2060.15 1837.4 2268.29 1864.03 2282.32 1741.48 2373.64 1740.9 2457.24 1779.85 2488.16 1766.39 2524.24 1806.19 2521.66 1873.48Z" fill="#E9F3F5" fill-rule="evenodd"/><path d="M2388.3 2147.11 2403.81 2147.68C2476.62 2148.19 2535.67 2133.94 2544.04 2033.06 2561.06 2016.86 2571 2001.95 2578.04 1985.1L2583.33 1969 2590.3 1984.65C2606.37 2030.58 2591.02 2051.6 2570.64 2057.15 2566.13 2144.98 2475.56 2183.4 2409.29 2158.59ZM2349 2145.68 2375.81 2146.66 2371.92 2148.13C2365 2149.87 2358.62 2149.66 2352.9 2147.71Z" fill="#CBD8E4" fill-rule="evenodd"/><path d="M2592.79 1993.49 2596.88 2010.03C2600.53 2039.06 2587.44 2053.38 2571.12 2057.82 2565.96 2158.04 2448.3 2193.83 2383.02 2144.58 2353.24 2159.47 2331.2 2141.72 2324.61 2104.21 2221.39 2174.27 2150.77 2081.25 2145.78 1991.19 2141.9 1921.14 2177.73 1852.88 2268.79 1864.53 2282.82 1741.98 2374.14 1741.4 2457.74 1780.35 2484.8 1768.57 2515.8 1797.57 2521.4 1850.09L2521.44 1851.27" stroke="#4E1518" stroke-width="9.16667" stroke-linecap="round" stroke-linejoin="round" stroke-miterlimit="10" fill="none" fill-rule="evenodd"/><path d="M2448 1931C2514.62 1874.07 2558.94 1854.04 2635 1822" stroke="#4E1518" stroke-width="13.75" stroke-linecap="round" stroke-linejoin="round" stroke-miterlimit="10" fill="none" fill-rule="evenodd"/><path d="M2522 1945C2544.86 1928.81 2565.14 1915.98 2588 1909" stroke="#4E1518" stroke-width="13.75" stroke-linecap="round" stroke-linejoin="round" stroke-miterlimit="10" fill="none" fill-rule="evenodd"/></g></svg>