<svg width="650" height="651" xmlns="http://www.w3.org/2000/svg" xmlns:xlink="http://www.w3.org/1999/xlink" xml:space="preserve" overflow="hidden"><defs><clipPath id="clip0"><rect x="681" y="1636" width="650" height="651"/></clipPath></defs><g clip-path="url(#clip0)" transform="translate(-681 -1636)"><rect x="681" y="1636" width="650" height="651" fill="#000000" fill-opacity="0"/><path d="M1232 1958.42C1232 1995.79 1217.77 2030.5 1193.4 2059.3L1175.46 2076.66 1195.05 2144 1119.41 2113.64 1093.97 2124.67C1066.93 2133.8 1037.2 2138.85 1006 2138.85 881.184 2138.85 780 2058.07 780 1958.42 780 1858.78 881.184 1778 1006 1778 1130.82 1778 1232 1858.78 1232 1958.42Z" stroke="#FFFFFF" stroke-width="27.5" stroke-linecap="round" stroke-linejoin="round" stroke-miterlimit="10" fill="none" fill-rule="evenodd"/><path d="M1232 1958.42C1232 1995.79 1217.77 2030.5 1193.4 2059.3L1175.46 2076.66 1195.05 2144 1119.41 2113.64 1093.97 2124.67C1066.93 2133.8 1037.2 2138.85 1006 2138.85 881.184 2138.85 780 2058.07 780 1958.42 780 1858.78 881.184 1778 1006 1778 1130.82 1778 1232 1858.78 1232 1958.42Z" fill="#FFFFFF" fill-rule="evenodd"/><path d="M1232 1958.51C1232 1995.86 1217.77 2030.56 1193.41 2059.34L1175.47 2076.7 1195.06 2144 1119.43 2113.66 1093.99 2124.68C1066.96 2133.8 1037.24 2138.85 1006.04 2138.85 959.241 2138.85 915.766 2127.49 879.703 2108.05L868 2100.34 902.5 2109.16C921.097 2112.3 940.352 2113.95 960.073 2113.95 1078.4 2113.95 1179.93 2054.69 1223.3 1970.24L1230.92 1950Z" fill="#D6DFE6" fill-rule="evenodd"/><path d="M1232.5 1958.92C1232.5 1996.29 1218.27 2031 1193.9 2059.8L1175.96 2077.16 1195.55 2144.5 1119.91 2114.14 1094.47 2125.17C1067.43 2134.3 1037.7 2139.35 1006.5 2139.35 881.683 2139.35 780.5 2058.57 780.5 1958.92 780.5 1859.28 881.683 1778.5 1006.5 1778.5 1131.32 1778.5 1232.5 1859.28 1232.5 1958.92Z" stroke="#551F21" stroke-width="9.16667" stroke-linecap="round" stroke-linejoin="round" stroke-miterlimit="10" fill="none" fill-rule="evenodd"/><path d="M848.5 1962C848.5 1941.29 865.513 1924.5 886.5 1924.5 907.487 1924.5 924.5 1941.29 924.5 1962 924.5 1982.71 907.487 1999.5 886.5 1999.5 865.513 1999.5 848.5 1982.71 848.5 1962Z" stroke="#551F21" stroke-width="9.16667" stroke-linecap="round" stroke-linejoin="round" stroke-miterlimit="10" fill="#9EBBFF" fill-rule="evenodd"/><path d="M1088.5 1962C1088.5 1941.29 1105.51 1924.5 1126.5 1924.5 1147.49 1924.5 1164.5 1941.29 1164.5 1962 1164.5 1982.71 1147.49 1999.5 1126.5 1999.5 1105.51 1999.5 1088.5 1982.71 1088.5 1962Z" stroke="#551F21" stroke-width="9.16667" stroke-linecap="round" stroke-linejoin="round" stroke-miterlimit="10" fill="#9EBBFF" fill-rule="evenodd"/><path d="M968.5 1962C968.5 1941.29 985.513 1924.5 1006.5 1924.5 1027.49 1924.5 1044.5 1941.29 1044.5 1962 1044.5 1982.71 1027.49 1999.5 1006.5 1999.5 985.513 1999.5 968.5 1982.71 968.5 1962Z" stroke="#551F21" stroke-width="9.16667" stroke-linecap="round" stroke-linejoin="round" stroke-miterlimit="10" fill="#9EBBFF" fill-rule="evenodd"/></g></svg>