<svg width="651" height="651" xmlns="http://www.w3.org/2000/svg" xmlns:xlink="http://www.w3.org/1999/xlink" xml:space="preserve" overflow="hidden"><defs><clipPath id="clip0"><rect x="577" y="859" width="651" height="651"/></clipPath></defs><g clip-path="url(#clip0)" transform="translate(-577 -859)"><rect x="577" y="859" width="651" height="651" fill="#000000" fill-opacity="0"/><path d="M706 1127.71C807.879 1084.94 827.106 1041.32 851.5 940 884.503 1069.73 930.42 1104.75 997 1125.13 899.139 1161 871.876 1227.88 853.222 1318 833.42 1227.02 790.373 1150.67 706 1127.71Z" stroke="#FFFFFF" stroke-width="27.5" stroke-linecap="round" stroke-linejoin="round" stroke-miterlimit="10" fill="none" fill-rule="evenodd"/><path d="M706 1127.71C807.879 1084.94 827.106 1041.32 851.5 940 884.503 1069.73 930.42 1104.75 997 1125.13 899.139 1161 871.876 1227.88 853.222 1318 833.42 1227.02 790.373 1150.67 706 1127.71Z" fill="#FED949" fill-rule="evenodd"/><path d="M847 958 845.807 986.359C841.276 1056.79 824.969 1113.49 730.434 1128.07L711.155 1130 706 1128.09C795.186 1090.63 821.061 1052.51 842.486 975.615Z" fill="#FFEC9D" fill-rule="evenodd"/><path d="M706.5 1128.21C808.379 1085.44 827.606 1041.82 852 940.5 885.003 1070.23 930.92 1105.25 997.5 1125.63 899.639 1161.5 872.376 1228.38 853.722 1318.5 833.92 1227.52 790.873 1151.17 706.5 1128.21Z" stroke="#511717" stroke-width="9.16667" stroke-linecap="round" stroke-linejoin="round" stroke-miterlimit="10" fill="none" fill-rule="evenodd"/><path d="M914 1309.19C978.418 1282.26 990.576 1254.79 1006 1191 1026.87 1272.68 1055.9 1294.73 1098 1307.56 1036.12 1330.15 1018.88 1372.26 1007.09 1429 994.568 1371.71 967.349 1323.64 914 1309.19Z" stroke="#FFFFFF" stroke-width="27.5" stroke-linecap="round" stroke-linejoin="round" stroke-miterlimit="10" fill="none" fill-rule="evenodd"/><path d="M914 1309.19C978.418 1282.26 990.576 1254.79 1006 1191 1026.87 1272.68 1055.9 1294.73 1098 1307.56 1036.12 1330.15 1018.88 1372.26 1007.09 1429 994.568 1371.71 967.349 1323.64 914 1309.19Z" fill="#FED949" fill-rule="evenodd"/><path d="M1003 1202 1002.25 1219.81C999.387 1264.03 989.094 1299.64 929.423 1308.79L917.254 1310 914 1308.8C970.294 1285.28 986.627 1261.34 1000.15 1213.06Z" fill="#FFEC9D" fill-rule="evenodd"/><path d="M914.5 1309.69C978.918 1282.76 991.076 1255.29 1006.5 1191.5 1027.37 1273.18 1056.4 1295.23 1098.5 1308.06 1036.62 1330.65 1019.38 1372.76 1007.59 1429.5 995.068 1372.21 967.849 1324.14 914.5 1309.69Z" stroke="#511717" stroke-width="9.16667" stroke-linecap="round" stroke-linejoin="round" stroke-miterlimit="10" fill="none" fill-rule="evenodd"/></g></svg>