<svg width="651" height="651" xmlns="http://www.w3.org/2000/svg" xmlns:xlink="http://www.w3.org/1999/xlink" xml:space="preserve" overflow="hidden"><defs><clipPath id="clip0"><rect x="0" y="1636" width="651" height="651"/></clipPath><linearGradient x1="410" y1="1707" x2="410" y2="2007" gradientUnits="userSpaceOnUse" spreadMethod="reflect" id="fill1"><stop offset="0" stop-color="#FFD35D"/><stop offset="0.01" stop-color="#FFD35D"/><stop offset="0.99" stop-color="#FFDE73"/><stop offset="1" stop-color="#FFDE73"/></linearGradient><linearGradient x1="197.5" y1="1961" x2="197.5" y2="2216" gradientUnits="userSpaceOnUse" spreadMethod="reflect" id="fill2"><stop offset="0" stop-color="#FFDF77"/><stop offset="0.01" stop-color="#FFDF77"/><stop offset="0.99" stop-color="#FFE47D"/><stop offset="1" stop-color="#FFE47D"/></linearGradient></defs><g clip-path="url(#clip0)" transform="matrix(1 0 0 1 0 -1636)"><rect x="0" y="1636" width="651" height="651" fill="#000000" fill-opacity="0"/><path d="M263 1841.1C294.807 1821.04 311.14 1813.02 350.684 1804.13 354.41 1764.88 364.152 1735.94 382.491 1707 417.163 1722.76 436.362 1747.97 452.982 1774.91 494.532 1767.46 522.327 1771.18 557 1778.35 551.556 1812.16 536.655 1839.95 509.719 1861.73 532.07 1898.98 538.087 1925.05 540.667 1960.58 505.134 1969.18 480.778 1964.02 444.386 1947.69 420.029 1976.05 393.094 1995.83 361 2007 343.807 1975.48 342.947 1939.66 342.947 1904.71 308.561 1889.52 284.491 1867.46 263 1841.1Z" stroke="#FFFFFF" stroke-width="27.5" stroke-linecap="round" stroke-linejoin="round" stroke-miterlimit="10" fill="none" fill-rule="evenodd"/><path d="M263 1841.1C294.807 1821.04 311.14 1813.02 350.684 1804.13 354.41 1764.88 364.152 1735.94 382.491 1707 417.163 1722.76 436.362 1747.97 452.982 1774.91 494.532 1767.46 522.327 1771.18 557 1778.35 551.556 1812.16 536.655 1839.95 509.719 1861.73 532.07 1898.98 538.087 1925.05 540.667 1960.58 505.134 1969.18 480.778 1964.02 444.386 1947.69 420.029 1976.05 393.094 1995.83 361 2007 343.807 1975.48 342.947 1939.66 342.947 1904.71 308.561 1889.52 284.491 1867.46 263 1841.1Z" fill="url(#fill1)" fill-rule="evenodd"/><path d="M382.491 1707C417.163 1722.72 436.362 1747.86 452.982 1774.73 494.532 1767.3 522.327 1771.01 557 1778.15L554.996 1786.37 524.333 1786.73C499.976 1787.01 475.62 1787.73 451.263 1790.16 429.485 1767.58 412.866 1751.01 388.509 1735.29 375.901 1759.29 366.731 1787.58 361 1815.02 326.184 1822.95 300.072 1831.84 272.872 1840.62L265.215 1843 263 1840.74C294.807 1820.73 311.14 1812.73 350.684 1803.87 354.41 1764.72 364.152 1735.86 382.491 1707Z" fill="#FFEBB4" fill-rule="evenodd"/><path d="M263.5 1841.6C295.307 1821.54 311.64 1813.52 351.184 1804.63 354.91 1765.38 364.652 1736.44 382.991 1707.5 417.664 1723.26 436.863 1748.47 453.482 1775.41 495.032 1767.96 522.828 1771.68 557.5 1778.85 552.056 1812.66 537.155 1840.45 510.219 1862.23 532.57 1899.48 538.588 1925.55 541.167 1961.08 505.635 1969.68 481.278 1964.52 444.886 1948.19 420.529 1976.55 393.594 1996.33 361.5 2007.5 344.307 1975.98 343.447 1940.16 343.447 1905.21 309.061 1890.02 284.992 1867.96 263.5 1841.6Z" stroke="#6D3626" stroke-width="9.16667" stroke-linecap="round" stroke-linejoin="round" stroke-miterlimit="10" fill="none" fill-rule="evenodd"/><path d="M93.9998 2164.22C146.662 2016.23 257.205 1946.36 284.271 1963.56 337.167 1997.17 252.272 1983.51 200.758 2215.9 156.562 2216.76 125.281 2213.31 93.9998 2164.22Z" stroke="#FFFFFF" stroke-width="27.5" stroke-linecap="round" stroke-linejoin="round" stroke-miterlimit="10" fill="none" fill-rule="evenodd"/><path d="M93.9998 2164.22C146.662 2016.23 257.205 1946.36 284.271 1963.56 337.167 1997.17 252.272 1983.51 200.758 2215.9 156.562 2216.76 125.281 2213.31 93.9998 2164.22Z" fill="url(#fill2)" fill-rule="evenodd"/><path d="M269.862 1961.17C275.558 1960.62 280.229 1961.41 283.601 1963.55L286 1965.23 277.087 1967.91C210.79 1995.95 124.174 2081.87 109.735 2177.2L109.119 2184 105.714 2180.4C101.793 2175.61 97.8963 2170.19 93.9998 2164.06 139.916 2034.68 229.992 1965.04 269.862 1961.17Z" fill="#FFF4CD" fill-rule="evenodd"/><path d="M94.5 2164.72C147.162 2016.73 257.705 1946.86 284.771 1964.06 337.667 1997.67 252.772 1984.01 201.258 2216.4 157.063 2217.26 125.781 2213.81 94.5 2164.72Z" stroke="#6D3626" stroke-width="9.16667" stroke-linecap="round" stroke-linejoin="round" stroke-miterlimit="10" fill="none" fill-rule="evenodd"/></g></svg>