<svg width="651" height="651" xmlns="http://www.w3.org/2000/svg" xmlns:xlink="http://www.w3.org/1999/xlink" xml:space="preserve" overflow="hidden"><defs><clipPath id="clip0"><rect x="2402" y="859" width="651" height="651"/></clipPath><linearGradient x1="2903" y1="1069.5" x2="2551" y2="1069.5" gradientUnits="userSpaceOnUse" spreadMethod="reflect" id="fill1"><stop offset="0" stop-color="#70CFFF"/><stop offset="0.01" stop-color="#70CFFF"/><stop offset="0.99" stop-color="#9ADDFF"/><stop offset="1" stop-color="#9ADDFF"/></linearGradient><linearGradient x1="2723.36" y1="1391.07" x2="2598.09" y2="1163.97" gradientUnits="userSpaceOnUse" spreadMethod="reflect" id="fill2"><stop offset="0" stop-color="#70CFFF"/><stop offset="0.01" stop-color="#70CFFF"/><stop offset="0.99" stop-color="#9ADDFF"/><stop offset="1" stop-color="#9ADDFF"/></linearGradient></defs><g clip-path="url(#clip0)" transform="translate(-2402 -859)"><rect x="2402" y="859" width="651" height="651" fill="#000000" fill-opacity="0"/><path d="M2551 1074.15C2668.43 1041.18 2724.98 1161.54 2774.4 1173.05 2830.56 1186.12 2879.73 1165.26 2892.98 1132.63 2921.19 1063.11 2894 969.901 2758.08 962.346 2656.39 956.694 2567.61 1021.4 2551 1074.15Z" stroke="#FFFFFF" stroke-width="27.5" stroke-linecap="round" stroke-linejoin="round" stroke-miterlimit="10" fill="none" fill-rule="evenodd"/><path d="M2551 1074.15C2668.43 1041.18 2724.98 1161.54 2774.4 1173.05 2830.56 1186.12 2879.73 1165.26 2892.98 1132.63 2921.19 1063.11 2894 969.901 2758.08 962.346 2656.39 956.694 2567.61 1021.4 2551 1074.15Z" fill="url(#fill1)" fill-rule="evenodd"/><path d="M2551 1074C2567.64 1021.32 2656.6 956.701 2758.47 962.346 2826.57 966.118 2867.42 991.276 2887.72 1024.17L2894 1038.34 2863.29 1016.65C2827.71 997.134 2784.16 984.286 2734.37 985.534 2660.47 987.387 2600.49 1027.45 2561.01 1068.43L2557.61 1072.62Z" fill="#A3EFFF" fill-rule="evenodd"/><path d="M2838.55 1033.65C2835.58 1040.64 2826.27 1043.37 2817.75 1039.75 2809.24 1036.13 2804.74 1027.53 2807.71 1020.54 2810.68 1013.55 2820 1010.82 2828.51 1014.44 2837.03 1018.06 2841.53 1026.66 2838.55 1033.65Z" fill="#A3EFFF" fill-rule="evenodd"/><path d="M2551.5 1074.65C2668.93 1041.68 2725.48 1162.04 2774.9 1173.55 2831.06 1186.62 2880.23 1165.76 2893.48 1133.13 2921.69 1063.61 2894.5 970.401 2758.58 962.846 2656.9 957.194 2568.11 1021.9 2551.5 1074.65Z" stroke="#5D4046" stroke-width="9.16667" stroke-linecap="round" stroke-linejoin="round" stroke-miterlimit="10" fill="none" fill-rule="evenodd"/><path d="M2595.09 1165.63C2658.13 1229.66 2600.68 1308.95 2610.85 1344.92 2622.41 1385.8 2653.35 1410.11 2679.1 1407.05 2733.95 1400.53 2784.35 1349.85 2740.85 1259.47 2708.31 1191.86 2635.01 1157.59 2595.09 1165.63Z" stroke="#FFFFFF" stroke-width="27.5" stroke-linecap="round" stroke-linejoin="round" stroke-miterlimit="10" fill="none" fill-rule="evenodd"/><path d="M2595.09 1165.63C2658.13 1229.66 2600.68 1308.95 2610.85 1344.92 2622.41 1385.8 2653.35 1410.11 2679.1 1407.05 2733.95 1400.53 2784.35 1349.85 2740.85 1259.47 2708.31 1191.86 2635.01 1157.59 2595.09 1165.63Z" fill="url(#fill2)" fill-rule="evenodd"/><path d="M2595.09 1165.63C2635.01 1157.59 2708.31 1191.86 2740.85 1259.47 2762.6 1304.66 2760.88 1339.93 2746.86 1364.71L2739.94 1373.8 2743.04 1346.3C2742.99 1316.44 2735.82 1283.82 2717.32 1252.21 2689.88 1205.28 2642.72 1180.92 2602.24 1170.09L2598.33 1169.39Z" fill="#A3EFFF" fill-rule="evenodd"/><path d="M2723.62 1336.54C2718.06 1337.11 2712.98 1332.07 2712.29 1325.29 2711.59 1318.51 2715.54 1312.55 2721.11 1311.98 2726.67 1311.41 2731.75 1316.44 2732.44 1323.23 2733.14 1330.01 2729.19 1335.97 2723.62 1336.54Z" fill="#A3EFFF" fill-rule="evenodd"/><path d="M2595.09 1165.63C2658.13 1229.66 2600.68 1308.95 2610.85 1344.92 2622.41 1385.8 2653.35 1410.11 2679.1 1407.05 2733.95 1400.53 2784.35 1349.85 2740.85 1259.47 2708.31 1191.86 2635.01 1157.59 2595.09 1165.63Z" stroke="#5D4046" stroke-width="9.16667" stroke-linecap="round" stroke-linejoin="round" stroke-miterlimit="10" fill="none" fill-rule="evenodd"/></g></svg>