<svg width="651" height="651" xmlns="http://www.w3.org/2000/svg" xmlns:xlink="http://www.w3.org/1999/xlink" xml:space="preserve" overflow="hidden"><defs><clipPath id="clip0"><rect x="1355" y="1636" width="651" height="651"/></clipPath><linearGradient x1="1680" y1="1721" x2="1680" y2="2202" gradientUnits="userSpaceOnUse" spreadMethod="reflect" id="fill1"><stop offset="0" stop-color="#48A2F5"/><stop offset="0.01" stop-color="#48A2F5"/><stop offset="0.99" stop-color="#347BD6"/><stop offset="1" stop-color="#347BD6"/></linearGradient></defs><g clip-path="url(#clip0)" transform="translate(-1355 -1636)"><rect x="1355" y="1636" width="651" height="651" fill="#000000" fill-opacity="0"/><path d="M1683.43 1721C1767.96 1976.2 1812.94 1982.64 1814.95 2062.79 1816.96 2142.94 1758.5 2199.48 1680 2201.91 1601.49 2204.35 1547.05 2155.83 1545.04 2077.39 1543.04 1998.96 1612.38 1937.7 1683.43 1721Z" stroke="#FFFFFF" stroke-width="27.5" stroke-linecap="round" stroke-linejoin="round" stroke-miterlimit="10" fill="none" fill-rule="evenodd"/><path d="M1683.43 1721C1767.96 1976.2 1812.94 1982.64 1814.95 2062.79 1816.96 2142.94 1758.5 2199.48 1680 2201.91 1601.49 2204.35 1547.05 2155.83 1545.04 2077.39 1543.04 1998.96 1612.38 1937.7 1683.43 1721Z" fill="url(#fill1)" fill-rule="evenodd"/><path d="M1807 2113.38 1805.71 2118.08C1786.44 2167.86 1738.84 2200.09 1679.96 2201.91 1601.45 2204.34 1547.01 2155.87 1545 2077.5L1545.04 2077 1552.47 2100.07C1573.82 2148.48 1622.61 2176.35 1685.97 2174.45 1728.22 2173.19 1765.06 2157.88 1791.08 2132.49Z" fill="#80C8FF" fill-rule="evenodd"/><path d="M1613.33 2093.48C1624.36 2083.74 1643.61 2087.53 1656.33 2101.94 1669.05 2116.35 1670.43 2135.92 1659.4 2145.66 1648.37 2155.4 1629.11 2151.61 1616.39 2137.2 1603.67 2122.79 1602.3 2103.21 1613.33 2093.48Z" fill="#80C8FF" fill-rule="evenodd"/><path d="M1683.93 1721.5C1768.46 1976.7 1813.44 1983.14 1815.45 2063.29 1817.46 2143.44 1759 2199.98 1680.5 2202.41 1601.99 2204.85 1547.55 2156.33 1545.54 2077.89 1543.54 1999.46 1612.88 1938.2 1683.93 1721.5Z" stroke="#4B2C3E" stroke-width="9.16667" stroke-linecap="round" stroke-linejoin="round" stroke-miterlimit="10" fill="none" fill-rule="evenodd"/></g></svg>