<svg width="650" height="651" xmlns="http://www.w3.org/2000/svg" xmlns:xlink="http://www.w3.org/1999/xlink" xml:space="preserve" overflow="hidden"><defs><clipPath id="clip0"><rect x="455" y="0" width="650" height="651"/></clipPath><linearGradient x1="780" y1="441" x2="780" y2="82.9996" gradientUnits="userSpaceOnUse" spreadMethod="reflect" id="fill1"><stop offset="0" stop-color="#46B6E7"/><stop offset="0.01" stop-color="#46B6E7"/><stop offset="0.99" stop-color="#61CFEF"/><stop offset="1" stop-color="#61CFEF"/></linearGradient></defs><g clip-path="url(#clip0)" transform="translate(-455 0)"><rect x="455" y="0" width="650" height="651" fill="#000000" fill-opacity="0"/><path d="M830.315 437.199 760.681 441.5C754.09 404.803 755.236 380.147 756.383 349.471 786.471 311.914 858.93 242.929 801.946 200.676 757.76 167.913 709.101 213.003 713.399 265.182L642.046 250.561C627.145 155.664 722.712 61.6285 809.683 88.0045 896.653 114.38 933.762 182.04 916.282 254.001 898.802 325.962 860.69 333.415 843.21 351.191 840.631 383.3 834.613 408.53 830.315 437.199Z" stroke="#FFFFFF" stroke-width="36.6667" stroke-linecap="round" stroke-linejoin="round" stroke-miterlimit="10" fill="none" fill-rule="evenodd"/><path d="M829.815 436.699 760.181 441C753.59 404.303 754.736 379.647 755.883 348.971 785.971 311.414 858.43 242.429 801.446 200.176 757.26 167.412 708.601 212.503 712.899 264.682L641.546 250.061C626.645 155.164 722.212 61.1283 809.182 87.5042 896.153 113.88 933.262 181.54 915.782 253.501 898.302 325.462 860.19 332.915 842.71 350.691 840.131 382.801 834.113 408.03 829.815 436.699Z" fill="url(#fill1)" fill-rule="evenodd"/><path d="M650.728 252 641.547 250.119C626.638 155.189 722.26 61.1206 809.28 87.5058 863.668 103.997 898.568 136.619 912.824 176.342L915 185.169 911.366 177.81C839.183 55.47 678.876 77.3524 653.451 224.435Z" fill="#84E7F8" fill-rule="evenodd"/><path d="M830.315 437.199 760.681 441.5C754.09 404.803 755.236 380.147 756.383 349.471 786.471 311.914 858.93 242.929 801.946 200.676 757.76 167.913 709.101 213.003 713.399 265.182L642.046 250.561C627.145 155.664 722.712 61.6285 809.683 88.0045 896.653 114.38 933.762 182.04 916.282 254.001 898.802 325.962 860.69 333.415 843.21 351.191 840.631 383.3 834.613 408.53 830.315 437.199Z" stroke="#4C171C" stroke-width="9.16667" stroke-linecap="round" stroke-linejoin="round" stroke-miterlimit="10" fill="none" fill-rule="evenodd"/><path d="M757.476 539.917C761.379 566.068 797.485 570.945 812.413 566.589 835.017 559.993 853.85 548.729 849.323 523.57 844.28 495.54 817.478 486.143 793.529 488.295 764.347 490.917 754.623 520.799 757.476 539.917Z" stroke="#FFFFFF" stroke-width="27.5" stroke-linecap="round" stroke-linejoin="round" stroke-miterlimit="10" fill="none" fill-rule="evenodd"/><path d="M757.476 539.917C761.379 566.068 797.485 570.945 812.413 566.589 835.017 559.993 853.85 548.729 849.323 523.57 844.28 495.54 817.478 486.143 793.529 488.295 764.347 490.917 754.623 520.799 757.476 539.917Z" fill="#45B6E6" fill-rule="evenodd"/><path d="M793.934 488.291C811.893 486.697 831.456 491.521 842.242 505.718L845 512.148 839.357 508.102C827.279 502.584 812.436 500.794 798.428 501.857 781.36 503.153 769.982 511.182 763.288 521.249L758 534 758.215 523.726C761.113 507.33 772.052 490.234 793.934 488.291Z" fill="#84E7F8" fill-rule="evenodd"/><path d="M757.976 540.417C761.879 566.568 797.985 571.445 812.913 567.089 835.517 560.493 854.35 549.229 849.823 524.07 844.78 496.04 817.978 486.643 794.029 488.795 764.847 491.416 755.123 521.299 757.976 540.417Z" stroke="#4C171C" stroke-width="9.16667" stroke-linecap="round" stroke-linejoin="round" stroke-miterlimit="10" fill="none" fill-rule="evenodd"/></g></svg>