<svg width="651" height="651" xmlns="http://www.w3.org/2000/svg" xmlns:xlink="http://www.w3.org/1999/xlink" xml:space="preserve" overflow="hidden"><defs><clipPath id="clip0"><rect x="2226" y="55" width="651" height="651"/></clipPath><linearGradient x1="2491.37" y1="445.382" x2="2611.89" y2="235.434" gradientUnits="userSpaceOnUse" spreadMethod="reflect" id="fill1"><stop offset="0" stop-color="#FFFBC9"/><stop offset="0.01" stop-color="#FFFBC9"/><stop offset="0.99" stop-color="#FFF33F"/><stop offset="1" stop-color="#FFF33F"/></linearGradient></defs><g clip-path="url(#clip0)" transform="translate(-2226 -55)"><rect x="2226" y="55" width="651" height="651" fill="#000000" fill-opacity="0"/><path d="M2458.75 544.868C2452.37 545.725 2445.05 544.316 2438.3 540.44 2424.8 532.687 2418.67 517.999 2424.62 507.634L2426.07 506.161 2428.4 510.729C2432.27 516.279 2437.28 520.29 2443.01 523.727 2448.74 527.165 2456.19 529.85 2464.28 531.086L2474.63 531.647 2473.53 535.709C2470.55 540.891 2465.12 544.012 2458.75 544.868Z" stroke="#FFFFFF" stroke-width="27.5" stroke-linecap="round" stroke-linejoin="round" stroke-miterlimit="10" fill="none" fill-rule="evenodd"/><path d="M2568 454.136 2489.37 529.911C2472.85 534.647 2454.62 530.772 2443.22 523.883 2431.83 516.995 2423.28 507.81 2421 488.579L2455.19 393 2568 454.136Z" stroke="#FFFFFF" stroke-width="27.5" stroke-linecap="round" stroke-linejoin="round" stroke-miterlimit="10" fill="none" fill-rule="evenodd"/><path d="M2667.97 409.553C2634.69 467.529 2555.62 484.627 2491.37 447.742 2427.11 410.857 2402.01 333.958 2435.29 275.982 2468.57 218.007 2547.64 200.909 2611.89 237.794 2676.14 274.678 2701.25 351.578 2667.97 409.553Z" stroke="#FFFFFF" stroke-width="27.5" stroke-linecap="round" stroke-linejoin="round" stroke-miterlimit="10" fill="none" fill-rule="evenodd"/><path d="M2568 451.696 2489.37 526.926C2472.85 531.628 2454.62 527.781 2443.22 520.942 2431.83 514.103 2423.28 504.984 2421 485.891L2455.19 391 2568 451.696Z" fill="#BDBEC2" fill-rule="evenodd"/><path d="M2473.53 533.349C2467.58 543.714 2451.81 545.832 2438.3 538.08 2424.8 530.327 2418.67 515.64 2424.62 505.274 2430.57 494.909 2446.34 492.791 2459.85 500.543 2473.35 508.296 2479.48 522.984 2473.53 533.349Z" fill="#BDBEC2" fill-rule="evenodd"/><path d="M2450.71 542 2448.95 541.923C2445.51 541.195 2442.01 539.877 2438.66 537.944 2435.31 536.01 2432.42 533.645 2430.05 531.022L2427 526.258 2468.3 398 2483.56 406.245 2486 420.97Z" fill="#DDDEE3" fill-rule="evenodd"/><path d="M2538.5 481.219C2514.82 484.417 2491.14 487.614 2474.98 478.661 2458.81 469.708 2450.16 448.604 2441.5 427.5" stroke="#65332F" stroke-width="9.16667" stroke-linecap="round" stroke-linejoin="round" stroke-miterlimit="10" fill="none" fill-rule="evenodd"/><path d="M2458.75 542.508C2452.37 543.364 2445.05 541.956 2438.3 538.079 2424.8 530.327 2418.67 515.639 2424.62 505.274L2426.07 503.801 2428.4 508.369C2432.27 513.919 2437.28 517.93 2443.01 521.367 2448.74 524.804 2456.19 527.49 2464.28 528.725L2474.63 529.287 2473.53 533.348C2470.55 538.531 2465.12 541.652 2458.75 542.508Z" stroke="#65332F" stroke-width="9.16667" stroke-linecap="round" stroke-linejoin="round" stroke-miterlimit="10" fill="none" fill-rule="evenodd"/><path d="M2568.5 452.196 2489.87 527.426C2473.35 532.127 2455.12 528.281 2443.72 521.442 2432.33 514.603 2423.78 505.484 2421.5 486.391L2455.69 391.5 2568.5 452.196Z" stroke="#65332F" stroke-width="9.16667" stroke-linecap="round" stroke-linejoin="round" stroke-miterlimit="10" fill="none" fill-rule="evenodd"/><path d="M2667.97 407.193C2634.69 465.169 2555.62 482.267 2491.37 445.382 2427.11 408.498 2402.01 331.598 2435.29 273.622 2468.57 215.647 2547.64 198.549 2611.89 235.434 2676.14 272.318 2701.25 349.218 2667.97 407.193Z" fill="url(#fill1)" fill-rule="evenodd"/><path d="M2678.47 322.205 2673.51 311.832C2659.98 289.016 2639.63 268.547 2613.64 253.627 2553 218.815 2481.75 225.753 2442.58 266.87L2432.14 280.869 2435.29 273.622C2468.57 215.646 2547.64 198.549 2611.89 235.433 2644.01 253.875 2666.35 282.321 2676.5 313.404Z" fill="#FFFFFF" fill-rule="evenodd"/><path d="M2544.02 443.61C2539.31 451.804 2520.39 449.776 2501.76 439.08 2483.13 428.384 2471.84 413.071 2476.54 404.877 2481.25 396.683 2500.16 398.711 2518.8 409.407 2537.43 420.103 2548.72 435.416 2544.02 443.61Z" fill="#FFF67C" fill-rule="evenodd"/><path d="M2472 402 2489 325" stroke="#996332" stroke-width="13.75" stroke-linecap="round" stroke-linejoin="round" stroke-miterlimit="10" fill="none" fill-rule="evenodd"/><path d="M2549 445 2606 394" stroke="#996332" stroke-width="13.75" stroke-linecap="round" stroke-linejoin="round" stroke-miterlimit="10" fill="none" fill-rule="evenodd"/><path d="M2557 436C2547.55 420.836 2538.1 405.671 2524.6 398.915 2511.1 392.16 2493.55 393.813 2476 395.466" stroke="#996332" stroke-width="13.75" stroke-linecap="round" stroke-linejoin="round" stroke-miterlimit="10" fill="none" fill-rule="evenodd"/><path d="M2607 387.75C2594.14 390.035 2581.29 392.32 2577.86 385.179 2574.43 378.037 2583.57 350.899 2586.43 344.9 2589.29 338.901 2600.86 345.471 2595 349.185 2589.14 352.899 2562.43 370.467 2551.29 367.182 2540.14 363.897 2530 338.33 2528.14 329.474 2526.29 320.619 2538.14 313.334 2540.14 314.048 2542.14 314.762 2543.71 327.617 2540.14 333.759 2536.57 339.901 2526.57 351.756 2518.71 350.899 2510.86 350.042 2501.93 339.33 2493 328.617" stroke="#996332" stroke-width="13.75" stroke-linecap="round" stroke-linejoin="round" stroke-miterlimit="10" fill="none" fill-rule="evenodd"/><path d="M2532 247.5C2532 253.299 2526.4 258 2519.5 258 2512.6 258 2507 253.299 2507 247.5 2507 241.701 2512.6 237 2519.5 237 2526.4 237 2532 241.701 2532 247.5Z" fill="#FFFFFF" fill-rule="evenodd"/><path d="M2667.97 407.193C2634.69 465.169 2555.62 482.266 2491.37 445.382 2427.11 408.497 2402.01 331.598 2435.29 273.622 2468.57 215.646 2547.64 198.549 2611.89 235.433 2676.14 272.318 2701.25 349.217 2667.97 407.193Z" stroke="#65332F" stroke-width="9.16667" stroke-linecap="round" stroke-linejoin="round" stroke-miterlimit="10" fill="none" fill-rule="evenodd"/></g></svg>