<svg width="651" height="651" xmlns="http://www.w3.org/2000/svg" xmlns:xlink="http://www.w3.org/1999/xlink" xml:space="preserve" overflow="hidden"><defs><clipPath id="clip0"><rect x="3491" y="1691" width="651" height="651"/></clipPath><linearGradient x1="3815" y1="1782" x2="3815" y2="2225" gradientUnits="userSpaceOnUse" spreadMethod="reflect" id="fill1"><stop offset="0" stop-color="#AABCE2"/><stop offset="0.01" stop-color="#AABCE2"/><stop offset="0.99" stop-color="#B9CAEC"/><stop offset="1" stop-color="#B9CAEC"/></linearGradient><linearGradient x1="3640.5" y1="1775.5" x2="3640.5" y2="2191.5" gradientUnits="userSpaceOnUse" spreadMethod="reflect" id="fill2"><stop offset="0" stop-color="#395181"/><stop offset="0.01" stop-color="#395181"/><stop offset="0.99" stop-color="#508CB6"/><stop offset="1" stop-color="#508CB6"/></linearGradient><linearGradient x1="3993" y1="1775.5" x2="3993" y2="2257.5" gradientUnits="userSpaceOnUse" spreadMethod="reflect" id="fill3"><stop offset="0" stop-color="#395181"/><stop offset="0.01" stop-color="#395181"/><stop offset="0.99" stop-color="#508CB6"/><stop offset="1" stop-color="#508CB6"/></linearGradient><linearGradient x1="3875.5" y1="1775.5" x2="3875.5" y2="2220.5" gradientUnits="userSpaceOnUse" spreadMethod="reflect" id="fill4"><stop offset="0" stop-color="#395181"/><stop offset="0.01" stop-color="#395181"/><stop offset="0.99" stop-color="#508CB6"/><stop offset="1" stop-color="#508CB6"/></linearGradient><linearGradient x1="3758" y1="1775.5" x2="3758" y2="2127.5" gradientUnits="userSpaceOnUse" spreadMethod="reflect" id="fill5"><stop offset="0" stop-color="#395181"/><stop offset="0.01" stop-color="#395181"/><stop offset="0.99" stop-color="#508CB6"/><stop offset="1" stop-color="#508CB6"/></linearGradient></defs><g clip-path="url(#clip0)" transform="translate(-3491 -1691)"><rect x="3491" y="1691" width="651" height="651" fill="#000000" fill-opacity="0"/><path d="M3645.29 1787.16C3779.57 1812.11 3877 1809.53 3989 1782L3989 2225C3918.43 2096.83 3766.43 2052.96 3641 2142.42L3645.29 1787.16Z" stroke="#FFFFFF" stroke-width="27.5" stroke-linecap="round" stroke-linejoin="round" stroke-miterlimit="10" fill="none" fill-rule="evenodd"/><path d="M3613 1802C3613 1787.09 3625.09 1775 3640 1775L3640 1775C3654.91 1775 3667 1787.09 3667 1802L3667 2164C3667 2178.91 3654.91 2191 3640 2191L3640 2191C3625.09 2191 3613 2178.91 3613 2164Z" stroke="#FFFFFF" stroke-width="27.5" stroke-linecap="round" stroke-linejoin="round" stroke-miterlimit="10" fill="none" fill-rule="evenodd"/><path d="M3965 1802.5C3965 1787.31 3977.31 1775 3992.5 1775L3992.5 1775C4007.69 1775 4020 1787.31 4020 1802.5L4020 2229.5C4020 2244.69 4007.69 2257 3992.5 2257L3992.5 2257C3977.31 2257 3965 2244.69 3965 2229.5Z" stroke="#FFFFFF" stroke-width="27.5" stroke-linecap="round" stroke-linejoin="round" stroke-miterlimit="10" fill="none" fill-rule="evenodd"/><path d="M3848 1802C3848 1787.09 3860.09 1775 3875 1775L3875 1775C3889.91 1775 3902 1787.09 3902 1802L3902 2193C3902 2207.91 3889.91 2220 3875 2220L3875 2220C3860.09 2220 3848 2207.91 3848 2193Z" stroke="#FFFFFF" stroke-width="27.5" stroke-linecap="round" stroke-linejoin="round" stroke-miterlimit="10" fill="none" fill-rule="evenodd"/><path d="M3730 1802.5C3730 1787.31 3742.31 1775 3757.5 1775L3757.5 1775C3772.69 1775 3785 1787.31 3785 1802.5L3785 2099.5C3785 2114.69 3772.69 2127 3757.5 2127L3757.5 2127C3742.31 2127 3730 2114.69 3730 2099.5Z" stroke="#FFFFFF" stroke-width="27.5" stroke-linecap="round" stroke-linejoin="round" stroke-miterlimit="10" fill="none" fill-rule="evenodd"/><path d="M3645.29 1787.16C3779.57 1812.11 3877 1809.53 3989 1782L3989 2225C3918.43 2096.83 3766.43 2052.96 3641 2142.42L3645.29 1787.16Z" fill="url(#fill1)" fill-rule="evenodd"/><path d="M3613.5 1802.5C3613.5 1787.59 3625.59 1775.5 3640.5 1775.5L3640.5 1775.5C3655.41 1775.5 3667.5 1787.59 3667.5 1802.5L3667.5 2164.5C3667.5 2179.41 3655.41 2191.5 3640.5 2191.5L3640.5 2191.5C3625.59 2191.5 3613.5 2179.41 3613.5 2164.5Z" stroke="#582D36" stroke-width="9.16667" stroke-linecap="round" stroke-linejoin="round" stroke-miterlimit="10" fill="url(#fill2)" fill-rule="evenodd"/><path d="M3965.5 1803C3965.5 1787.81 3977.81 1775.5 3993 1775.5L3993 1775.5C4008.19 1775.5 4020.5 1787.81 4020.5 1803L4020.5 2230C4020.5 2245.19 4008.19 2257.5 3993 2257.5L3993 2257.5C3977.81 2257.5 3965.5 2245.19 3965.5 2230Z" stroke="#582D36" stroke-width="9.16667" stroke-linecap="round" stroke-linejoin="round" stroke-miterlimit="10" fill="url(#fill3)" fill-rule="evenodd"/><path d="M3848.5 1802.5C3848.5 1787.59 3860.59 1775.5 3875.5 1775.5L3875.5 1775.5C3890.41 1775.5 3902.5 1787.59 3902.5 1802.5L3902.5 2193.5C3902.5 2208.41 3890.41 2220.5 3875.5 2220.5L3875.5 2220.5C3860.59 2220.5 3848.5 2208.41 3848.5 2193.5Z" stroke="#582D36" stroke-width="9.16667" stroke-linecap="round" stroke-linejoin="round" stroke-miterlimit="10" fill="url(#fill4)" fill-rule="evenodd"/><path d="M3730.5 1803C3730.5 1787.81 3742.81 1775.5 3758 1775.5L3758 1775.5C3773.19 1775.5 3785.5 1787.81 3785.5 1803L3785.5 2100C3785.5 2115.19 3773.19 2127.5 3758 2127.5L3758 2127.5C3742.81 2127.5 3730.5 2115.19 3730.5 2100Z" stroke="#582D36" stroke-width="9.16667" stroke-linecap="round" stroke-linejoin="round" stroke-miterlimit="10" fill="url(#fill5)" fill-rule="evenodd"/></g></svg>