<svg width="651" height="651" xmlns="http://www.w3.org/2000/svg" xmlns:xlink="http://www.w3.org/1999/xlink" xml:space="preserve" overflow="hidden"><defs><clipPath id="clip0"><rect x="2785" y="1636" width="651" height="651"/></clipPath></defs><g clip-path="url(#clip0)" transform="translate(-2785 -1636)"><rect x="2785" y="1636" width="651" height="651" fill="#000000" fill-opacity="0"/><path d="M2848.5 1995.07C2852.48 1975.16 2846.23 2003.37 2875.12 1954.7L2907.74 1899.73C2912.64 1891.45 2917.5 1883.14 2922.34 1874.82 2926.66 1867.39 2930.51 1859.68 2935.21 1852.49 2947.98 1832.96 2949.1 1830.2 2962.69 1812.98 2966.84 1807.72 2970.83 1802.27 2975.57 1797.52 2990.56 1782.52 3029.57 1759.98 3039.96 1755.44 3049.12 1751.43 3058 1746.73 3067.43 1743.41 3089.82 1735.53 3126.06 1727.89 3148.14 1725.37 3167.51 1723.17 3187.05 1722.96 3206.52 1721.94 3297.86 1717.17 3232.72 1721.46 3288.08 1717.64 3292.09 1717.93 3296.51 1716.71 3300.1 1718.5 3310.52 1723.72 3294.39 1742.28 3294.09 1742.55 3288.98 1747.21 3281.65 1748.63 3275.2 1751.14 3258.17 1757.79 3241.43 1765.6 3223.69 1770.04 3214.53 1772.33 3205.44 1774.91 3196.22 1776.91 3175.38 1781.43 3164.67 1781.84 3142.99 1785.5 3128.93 1787.87 3115.05 1791.33 3100.92 1793.23 3080.03 1796.03 3047.07 1797.3 3025.36 1798.38 3012.49 1798.09 2998.78 1802.08 2986.73 1797.52 2982.64 1795.98 2989.94 1788.75 2993.6 1786.36 3005.27 1778.72 3018.33 1773.27 3031.37 1768.32 3051.6 1760.64 3072.03 1753.07 3093.19 1748.56 3134.01 1739.87 3176 1737.47 3216.82 1728.81L3245.16 1722.8C3254.03 1725.66 3265.62 1724.38 3271.77 1731.39 3276.13 1736.35 3273.01 1745.23 3270.05 1751.14 3267.41 1756.42 3261.19 1758.97 3256.32 1762.31 3242.55 1771.73 3232.65 1775.76 3217.68 1782.92 3208.6 1792 3208.72 1790.55 3240.86 1782.06 3269.59 1774.48 3274.98 1770.43 3299.24 1758.87 3300.98 1758.05 3295.94 1760.92 3294.09 1761.45 3286.08 1763.74 3278.15 1766.35 3270.05 1768.32 3245.23 1774.37 3220.65 1781.88 3195.36 1785.5L3153.29 1791.51C3147.83 1793.19 3131.22 1797.93 3127.53 1800.96 3120.16 1807.01 3115.02 1815.34 3108.64 1822.43 3104.72 1826.8 3100.33 1830.75 3096.62 1835.31 3092.9 1839.89 3089.57 1844.82 3085.46 1849.06 3073.97 1860.92 3062.31 1869.08 3048.54 1878.26 3035.31 1887.08 3028.7 1890.49 3013.34 1896.3 3007.16 1898.63 3000.95 1901.11 2994.46 1902.31 2986.83 1903.71 2979 1903.45 2971.27 1904.03 2959.54 1901.74 2946.48 1903.05 2936.07 1897.15 2929.83 1893.62 2929.46 1884.41 2925.77 1878.26 2913.14 1857.21 2899.73 1836.63 2887.14 1815.56 2881.41 1805.99 2870.82 1786.36 2870.82 1786.36 2866.64 1771.02 2860.15 1763.75 2874.26 1750.28 2876.75 1747.9 2881.13 1749.71 2884.56 1749.42 2902.32 1755.88 2926.51 1764.33 2938.65 1774.33 2943.51 1778.34 2948.14 1782.66 2953.24 1786.36 2958.46 1790.12 2964.41 1792.8 2969.56 1796.66 2979.82 1804.37 3004.1 1832.41 3006.48 1836.17 3013.34 1847.05 3020.7 1857.64 3027.08 1868.81 3035.46 1883.48 3030.91 1877.36 3039.96 1887.71 3038.81 1880.84 3037.81 1873.94 3036.52 1867.09 3034.37 1855.61 3031.37 1844.29 3029.66 1832.74 3027.93 1821.07 3027.37 1809.26 3026.22 1797.52 3027.47 1787.54 3025.72 1775.46 3034.81 1768.32 3036.4 1767.07 3038.81 1767.75 3040.82 1767.46 3042.82 1768.32 3045.09 1768.72 3046.83 1770.04 3051.18 1773.35 3055.4 1776.96 3058.85 1781.2 3065.2 1789.02 3073.61 1805.61 3077.74 1814.7 3100.45 1864.68 3074.48 1809.62 3092.33 1851.63 3094.93 1857.76 3098.15 1863.61 3100.92 1869.67 3102.73 1873.64 3103.83 1877.95 3106.07 1881.69 3107.79 1884.56 3109.61 1887.36 3111.22 1890.28 3115.61 1898.27 3120.29 1911.22 3127.53 1916.05L3135.26 1921.2C3143.26 1917.2 3141.14 1919.51 3139.55 1902.31 3138.64 1892.47 3135.96 1882.87 3134.4 1873.11 3132.81 1863.11 3131.54 1853.06 3130.11 1843.04 3129.82 1836.17 3128.55 1829.27 3129.25 1822.43 3130.98 1805.49 3135.13 1797.27 3144.7 1783.78 3147.17 1780.31 3149.69 1776.6 3153.29 1774.33 3155.48 1772.95 3158.44 1773.76 3161.02 1773.47 3170.55 1776.34 3178.1 1777.58 3185.06 1787.22 3189.14 1792.87 3189.63 1800.39 3191.92 1806.97 3192.21 1817.85 3192.78 1828.72 3192.78 1839.61 3192.78 1903.72 3190.84 1856.61 3192.78 1895.44 3194.21 1888.28 3194.9 1880.93 3197.08 1873.96 3203.78 1852.51 3213.05 1828.93 3228.84 1812.12 3242.9 1797.16 3256.7 1795.54 3275.2 1789.79 3289.44 1791.5 3299.69 1788.96 3308.69 1801.82 3312.01 1806.57 3312.7 1812.7 3314.7 1818.14 3315.56 1825.58 3318.06 1833.01 3317.27 1840.47 3315.44 1857.86 3303.77 1904.53 3293.23 1920.34 3276.45 1945.52 3288.63 1928.27 3264.9 1958.14 3261.98 1961.81 3251.72 1970.26 3256.32 1969.3 3290.79 1962.12 3269.98 1966 3318.99 1959 3331.87 1961.29 3345.03 1962.34 3357.63 1965.87 3359.78 1966.47 3361.18 1968.91 3361.92 1971.02 3362.97 1974 3362.49 1977.32 3362.78 1980.47 3357.05 1985.62 3351.87 1991.44 3345.61 1995.93 3286.12 2038.58 3335.73 1994.65 3276.92 2044.03 3259.54 2058.62 3210.54 2105.02 3183.34 2122.19 3163.73 2134.56 3125.16 2153.1 3102.63 2159.98 3089.21 2164.08 3075.05 2165.23 3061.42 2168.57 3049.28 2171.54 3037.28 2175.11 3025.36 2178.87 2991.96 2189.43 3003.68 2187.91 2973.85 2196.05 2971.9 2196.58 2969.84 2196.62 2967.84 2196.91 2966.12 2191.18 2962.58 2185.71 2962.69 2179.73 2963.3 2145.65 2975.92 2133.3 3004.76 2111.02 3020.18 2099.1 3037.98 2090.54 3055.41 2081.82 3084.09 2067.47 3125.51 2051.44 3157.58 2046.6 3175.68 2043.87 3262.24 2043.38 3277.78 2043.17 3296.49 2048.05 3324.07 2050.28 3337.88 2068.08 3349.92 2083.59 3367.93 2118.75 3367.93 2118.75 3367.95 2118.83 3376.77 2146.28 3373.94 2150.53 3371.82 2153.71 3366.5 2152.25 3362.78 2153.11 3340.45 2151.96 3318.03 2152.07 3295.81 2149.67 3273.73 2147.28 3264.15 2140.93 3244.3 2133.35 3215.58 2122.39 3196.24 2115.78 3167.88 2105.87 3135.78 2094.65 3111.46 2086.82 3079.45 2072.37 3049.63 2058.91 3023.93 2044.3 2997.03 2025.99 2981.31 2015.29 2966.21 2003.05 2953.24 1989.06 2948.26 1983.68 2944.09 1977.6 2939.51 1971.88 2936.01 1962.54 2931.81 1952.56 2930.06 1942.68 2929.27 1938.16 2929.49 1933.51 2929.21 1928.93 2931.21 1925.21 2932.1 1920.62 2935.21 1917.77 2947.95 1906.09 2962.87 1909.27 2979 1908.32 2980.13 1908.57 3091.33 1932.48 3118.95 1940.96 3134.61 1945.77 3150.02 1951.38 3165.31 1957.28 3181.23 1963.41 3197.34 1969.27 3212.53 1977.03 3223.77 1982.78 3234.01 1990.32 3244.3 1997.65 3255.94 2005.94 3265.15 2012.71 3271.77 2025.13 3274.07 2029.45 3275.2 2034.29 3276.92 2038.87 3277.49 2043.45 3279.19 2048.03 3278.64 2052.62 3277.29 2063.71 3268.14 2076.66 3261.47 2084.39 3255.12 2091.75 3248.41 2098.89 3240.86 2105.01 3225.82 2117.22 3202.68 2128.98 3185.06 2135.93 3156.42 2147.22 3128 2159.47 3098.34 2167.71 3082.89 2172 3067.53 2176.67 3051.98 2180.59 3013.6 2190.28 2983.81 2196.42 2943.8 2200.35 2931.55 2201.55 2919.19 2200.92 2906.88 2201.21 2898.3 2199.77 2888.66 2201.27 2881.13 2196.91 2875.45 2193.62 2872.83 2175.15 2871.68 2169.43 2872.54 2165.42 2872.56 2161.13 2874.26 2157.4 2884.53 2134.79 2899.17 2128.29 2923.2 2115.32 2945.73 2103.15 2969.22 2092.8 2992.74 2082.68 3045.51 2059.97 3095.02 2040.81 3151.57 2029.43 3172.73 2025.17 3194.5 2024.84 3215.96 2022.55 3225.41 2023.99 3235.66 2022.77 3244.3 2026.85 3257.49 2033.07 3272.67 2061.96 3278.64 2071.51 3280.86 2085.31 3284.53 2101.73 3283.79 2116.17 3283.52 2121.39 3282.03 2126.47 3281.21 2131.63 3280.31 2137.35 3279.41 2143.07 3278.64 2148.81 3277.98 2153.67 3278.01 2158.64 3276.92 2163.41 3273.45 2178.62 3265.79 2194.72 3250.31 2201.21 3243.32 2204.13 3235.42 2204.07 3227.98 2205.5 3209.67 2203.21 3190.39 2204.92 3173.04 2198.63 3150.14 2190.33 3130.75 2174.45 3109.5 2162.55 3096.98 2155.55 3084.44 2148.57 3071.73 2141.94 3057.54 2134.54 3043.49 2126.8 3028.8 2120.47L2960.97 2091.27C2954.38 2088.42 2947.58 2086.01 2941.22 2082.68L2923.2 2073.23C2920.33 2069.79 2916.79 2066.82 2914.61 2062.92 2912.71 2059.52 2911.58 2055.63 2911.18 2051.76 2910.7 2047.19 2910.35 2042.28 2912.03 2038.01 2917.86 2023.21 2932.7 2015.92 2943.8 2006.23 2961.52 1990.78 2978.67 1974.7 2996.17 1959L3027.08 1931.51C3035.61 1924.01 3042.94 1914.76 3052.84 1909.18 3064 1902.88 3074.6 1895.46 3086.32 1890.28 3113.15 1878.42 3146.05 1871.06 3174.75 1867.09 3185.54 1865.6 3196.5 1865.95 3207.38 1865.38 3215.48 1866.73 3231.97 1867.19 3239.15 1874.82 3241.19 1877 3240.86 1880.55 3241.72 1883.41 3239.43 1888.28 3238.22 1893.82 3234.85 1898.01 3228.63 1905.74 3221.2 1912.52 3213.39 1918.63 3189.43 1937.35 3172.9 1945.8 3144.7 1956.42 3117.55 1966.64 3084.09 1976.4 3055.41 1981.33 3042.08 1983.62 3028.48 1983.94 3015.06 1985.62 2950.78 1993.66 2970.41 1989.53 2929.21 2000.22 2925.2 2002.8 2921.05 2005.17 2917.19 2007.95 2909.89 2013.2 2895.72 2024.27 2895.72 2024.27 2895.15 2018.55 2892.92 2012.75 2894 2007.09 2897.67 1987.94 2912.47 1969.86 2924.91 1956.42 2935.09 1945.42 2945.39 1934.27 2957.54 1925.5 2985.34 1905.41 3019.32 1894.79 3048.54 1877.4 3066.96 1866.44 3101.78 1841.33 3101.78 1841.33" stroke="#4C1215" stroke-width="36.6667" stroke-linejoin="bevel" stroke-miterlimit="10" fill="none" fill-rule="evenodd"/><path d="M2949.92 1877.67C2951.34 1877.1 2952.72 1876.36 2954.2 1875.95 2994.01 1865.18 3001.77 1864.9 3054.53 1860.5 3109.06 1855.94 3218.31 1849.33 3218.31 1849.33 3216.15 1879.63 3220.98 1863.72 3163.43 1880.25 3046.55 1913.81 3136.9 1875.35 2991.08 1931.77 2946.99 1948.83 2964.65 1939.01 2936.2 1957.54 2945.91 1958.4 2955.63 1960.91 2965.35 1960.11 3036.1 1954.31 3106.67 1946.32 3177.15 1937.78 3203.16 1934.64 3229.08 1930.61 3255.18 1928.34 3268.57 1927.17 3282.05 1927.77 3295.49 1927.48 3299.49 1929.2 3307.18 1928.28 3307.49 1932.63 3307.8 1936.99 3300.41 1937.92 3296.34 1939.5 3278.32 1946.54 3259.94 1952.64 3241.46 1958.4 3213.05 1967.25 3184.56 1975.97 3155.71 1983.3 2963.55 2032.09 3053.09 1996.55 2955.92 2038.26 2940.72 2053.48 2941.4 2048.98 2972.21 2044.27L3047.67 2032.25C3072.31 2027.99 3096.9 2023.42 3121.41 2018.51 3136.92 2015.4 3152.1 2010.69 3167.72 2008.2 3177.33 2006.67 3187.16 2007.06 3196.87 2006.49 3206.02 2008.78 3215.53 2009.92 3224.31 2013.36 3227.52 2014.61 3233 2016.92 3232.03 2020.23 3230.69 2024.8 3224.44 2026.19 3220.03 2027.96 3204.33 2034.24 3188.25 2039.58 3172.01 2044.27 3114.19 2060.99 3091.93 2061.88 3037.38 2082.06 3025.51 2086.45 3014.51 2092.94 3003.08 2098.37 2998.51 2103.53 2992.8 2107.86 2989.36 2113.83 2988.21 2115.83 2988.75 2118.92 2990.22 2120.7 2999.39 2131.86 3007.6 2128.7 3021.09 2129.29 3031.95 2123.85 3043.43 2119.51 3053.67 2112.97 3066.4 2104.85 3076.42 2092.69 3089.69 2085.49 3120.95 2068.53 3186.58 2040.84 3186.58 2040.84 3210.38 2012.24 3238.11 1988.24 3244.04 1948.95 3248.58 1918.82 3236.73 1894.13 3221.74 1869.94 3218 1863.9 3213.77 1857.8 3208.02 1853.63 3202 1849.26 3194.3 1847.9 3187.44 1845.04 3176.58 1847.04 3164.88 1846.41 3154.86 1851.05 3137.8 1858.95 3122.87 1870.87 3107.69 1881.96 3050.37 1923.85 3048.15 1922.82 3013.37 1982.44 3007.56 1992.4 3003.35 2003.29 2999.65 2014.22 2991.9 2037.12 2979.07 2083.78 2979.07 2083.78 2977.93 2095.51 2975.82 2107.19 2975.64 2118.99 2975.45 2131.38 2976.67 2141.62 2985.07 2150.76 2988.79 2154.81 2992.86 2158.98 2997.94 2161.06 3004.37 2163.71 3011.66 2163.35 3018.52 2164.5 3059.64 2147.03 3048.68 2157.16 3081.11 2107.82 3101.59 2076.67 3129.23 2023.6 3141.99 1988.45 3149.29 1968.35 3153.43 1947.23 3159.14 1926.62 3162.86 1890.03 3169.75 1851.27 3159.14 1814.98 3156.58 1806.2 3152.88 1797.34 3143.71 1793.51 3127.09 1786.58 3111.64 1788.04 3093.97 1787.5 3082.83 1789.5 3071.11 1789.45 3060.53 1793.51 3038 1802.17 3020.85 1820.45 3005.65 1838.17 2980.08 1867.97 2975.45 1876.75 2957.63 1912.02 2950.29 1926.56 2936.48 1956.73 2931.05 1973.85 2928.2 1982.85 2926.48 1992.17 2924.19 2001.33 2923.88 2004.25 2919.63 2030.9 2922.48 2038.26 2924.48 2043.44 2927.48 2048.65 2931.91 2052 2951.85 2067.12 2986.82 2067.05 3007.37 2070.04 3024.52 2065.74 3043.08 2065.22 3058.82 2057.15 3098.98 2036.57 3159.47 1974.02 3184.01 1942.94 3197.36 1926.03 3205.73 1905.72 3216.6 1887.12 3214.02 1879.39 3214.79 1869.53 3208.88 1863.93 3187.74 1843.91 3135.15 1872.91 3125.7 1877.67 3042.66 1919.51 3052.3 1919.21 2997.94 1981.58 2985.34 2015.57 2970.94 2042.51 2972.21 2079.48 2972.93 2100.43 2980.52 2118.76 3003.08 2123.28 3021.03 2126.87 3039.67 2124.42 3057.96 2125 3079.4 2116.69 3103.17 2112.89 3122.27 2100.09 3164.04 2072.1 3187.22 2026.72 3206.31 1982.44 3213.69 1965.32 3217.74 1946.95 3223.46 1929.2 3220.88 1918.03 3224.03 1903.6 3215.74 1895.7 3209.31 1889.59 3197.38 1893.25 3189.16 1896.56 3170.37 1904.13 3152.87 1915.08 3136.85 1927.48 3104.41 1952.59 3069.25 1993.2 3048.53 2028.81 3040.27 2043.01 3035.95 2059.16 3029.66 2074.33 3028.81 2084.06 3025.59 2093.87 3027.09 2103.53 3029.51 2119.13 3043.41 2133.74 3058.82 2137.02 3074.2 2140.29 3090.26 2138.16 3105.98 2138.74 3123.42 2131.87 3142.53 2128.28 3158.29 2118.13 3192.39 2096.15 3204.62 2060.18 3222.6 2026.24 3226.64 2008.71 3247 1959.88 3226.89 1937.78 3222.77 1933.26 3214.88 1940.07 3208.88 1941.22 3196.87 1948.38 3184.36 1954.74 3172.86 1962.69 3160.3 1971.38 3148.42 1981.05 3136.85 1991.03 3113.75 2010.94 3097.13 2027.51 3080.25 2052.86 3074.51 2061.49 3069.52 2070.71 3065.68 2080.34 3062.05 2089.43 3060.53 2099.23 3057.96 2108.68 3057.33 2116.29 3054.43 2133.33 3057.96 2142.17 3058.79 2144.25 3061.39 2145.03 3063.1 2146.47 3082.47 2145.32 3078.62 2146.29 3101.69 2140.45 3120.92 2135.59 3139.73 2129.02 3159.14 2125 3173.17 2122.09 3194.24 2118.08 3208.02 2113.83 3215.02 2111.67 3221.89 2109.04 3228.6 2106.1 3244.5 2099.14 3249.82 2096.88 3261.19 2085.49 3262.09 2084.59 3262.33 2083.2 3262.9 2082.06" stroke="#4C1215" stroke-width="22.9167" stroke-linejoin="bevel" stroke-miterlimit="10" fill="none" fill-rule="evenodd"/></g></svg>