<svg width="651" height="651" xmlns="http://www.w3.org/2000/svg" xmlns:xlink="http://www.w3.org/1999/xlink" xml:space="preserve" overflow="hidden"><defs><clipPath id="clip0"><rect x="3097" y="859" width="651" height="651"/></clipPath><linearGradient x1="3422" y1="931" x2="3422" y2="1439" gradientUnits="userSpaceOnUse" spreadMethod="reflect" id="fill1"><stop offset="0" stop-color="#8684BD"/><stop offset="0.01" stop-color="#8684BD"/><stop offset="0.99" stop-color="#ABB1E1"/><stop offset="1" stop-color="#ABB1E1"/></linearGradient></defs><g clip-path="url(#clip0)" transform="translate(-3097 -859)"><rect x="3097" y="859" width="651" height="651" fill="#000000" fill-opacity="0"/><path d="M3171.48 1437.92 3324.32 1388.04C3360.95 1457.7 3421.63 1451.68 3452.26 1395.78 3723.59 1444.23 3702.13 1151.26 3630 1099.94 3638.87 1020.82 3606.53 980.401 3530.4 978.681 3451.97 905.294 3367.54 919.627 3323.46 1001.04 3304.57 1000.18 3294.26 1007.06 3292.55 1024.26 3264.78 1028.85 3252.48 1036.87 3235.02 1050.92 3163.46 1088.76 3145.15 1190.24 3195.52 1265.06 3192.08 1293.44 3201.53 1306.34 3218.7 1314.08 3193.52 1360.52 3182.93 1382.88 3171.48 1437.92Z" stroke="#FFFFFF" stroke-width="27.5" stroke-linecap="round" stroke-linejoin="round" stroke-miterlimit="10" fill="none" fill-rule="evenodd"/><path d="M3171.48 1437.92 3324.32 1388.04C3360.95 1457.7 3421.63 1451.68 3452.26 1395.78 3723.59 1444.23 3702.13 1151.26 3630 1099.94 3638.87 1020.82 3606.53 980.401 3530.4 978.681 3451.97 905.294 3367.54 919.627 3323.46 1001.04 3304.57 1000.18 3294.26 1007.06 3292.55 1024.26 3264.78 1028.85 3252.48 1036.87 3235.02 1050.92 3163.46 1088.76 3145.15 1190.24 3195.52 1265.06 3192.08 1293.44 3201.53 1306.34 3218.7 1314.08 3193.52 1360.52 3182.93 1382.88 3171.48 1437.92Z" fill="url(#fill1)" fill-rule="evenodd"/><path d="M3414.22 931.809C3450.67 927.233 3491.41 941.962 3530.65 978.568 3587.79 979.855 3620.28 1002.86 3629.21 1047.58L3631 1064.86 3611.85 1040.66C3591.94 1019.46 3568.6 1005.02 3531.51 1003.45 3453.32 926.805 3397.46 947.968 3330.44 1012.89 3312.4 1014.03 3307.24 1017.75 3294.35 1039.48 3205.21 1064.58 3185.17 1117.67 3177.71 1187.89L3175.12 1220 3170.38 1204.71C3157.62 1142.98 3181.36 1078.95 3235.06 1050.64 3252.54 1036.62 3264.85 1028.62 3292.64 1024.04 3294.35 1006.88 3304.67 1000.02 3323.57 1000.88 3345.62 960.265 3377.77 936.385 3414.22 931.809Z" fill="#A5AEE3" fill-rule="evenodd"/><path d="M3171.98 1438.42 3324.82 1388.54C3361.45 1458.2 3422.13 1452.18 3452.76 1396.28 3724.09 1444.73 3702.63 1151.76 3630.5 1100.44 3639.37 1021.32 3607.03 980.902 3530.9 979.181 3452.47 905.794 3368.04 920.128 3323.96 1001.54 3305.07 1000.68 3294.76 1007.56 3293.05 1024.76 3265.28 1029.35 3252.98 1037.37 3235.52 1051.42 3163.96 1089.26 3145.65 1190.74 3196.02 1265.56 3192.58 1293.94 3202.03 1306.84 3219.2 1314.58 3194.02 1361.02 3183.43 1383.38 3171.98 1438.42Z" stroke="#61323B" stroke-width="9.16667" stroke-linecap="round" stroke-linejoin="round" stroke-miterlimit="10" fill="none" fill-rule="evenodd"/><path d="M3473.46 1240.8C3474.03 1242.23 3474.04 1244.05 3475.18 1245.1 3485.29 1254.44 3489.54 1251.33 3504.38 1251.97 3511.25 1250.54 3518.37 1250 3525 1247.68 3538.77 1242.85 3548.22 1231.4 3557.64 1221.03 3560.79 1212.73 3565.26 1204.81 3567.09 1196.11 3571.6 1174.67 3569.61 1185.27 3573.1 1164.31 3573.61 1155.62 3574.85 1144.68 3573.1 1135.95 3570.53 1123.11 3567.59 1113.64 3562.79 1102.43 3561.12 1098.52 3555.9 1086.87 3553.34 1083.52 3550.89 1080.3 3548.05 1077.28 3544.75 1074.93 3541.94 1072.92 3538.51 1071.94 3535.31 1070.63 3525.23 1066.51 3527.79 1067.41 3518.13 1066.33 3515.84 1066.62 3513.43 1066.42 3511.25 1067.19 3509.31 1067.89 3507.92 1069.65 3506.1 1070.63 3504.18 1071.66 3502.04 1072.23 3500.09 1073.21 3498.02 1074.24 3496.08 1075.5 3494.07 1076.65 3489.85 1082.56 3489.68 1082.38 3486.34 1088.68 3484.85 1091.51 3483.14 1094.26 3482.05 1097.27 3480.84 1100.6 3480.14 1104.11 3479.47 1107.59 3477.74 1116.57 3477.59 1121.8 3476.89 1130.79 3477.13 1134.14 3477.78 1157.05 3480.33 1165.17 3482.53 1172.18 3486.22 1178.69 3488.06 1185.8 3490.07 1193.53 3491.23 1201.53 3494.07 1209 3496.36 1215.02 3498.56 1221.07 3500.95 1227.05 3503.61 1233.72 3505.3 1235.53 3506.96 1242.52 3511.45 1261.38 3505.61 1244.31 3511.25 1263.15 3511.96 1265.49 3512.99 1267.72 3513.83 1270.02 3514.14 1270.87 3513.88 1272.2 3514.69 1272.6 3516.5 1273.51 3518.7 1273.17 3520.7 1273.46 3528.86 1271.98 3532.7 1272.64 3538.74 1265.73 3540.6 1263.6 3541.03 1260.57 3542.18 1257.99 3542.97 1248.45 3543.79 1244.8 3542.18 1234.79 3541.43 1230.12 3540.11 1225.56 3538.74 1221.03 3535.44 1210.13 3532.37 1202.57 3526.72 1192.67 3521.63 1183.76 3520.39 1182.18 3512.97 1176.34 3511.35 1175.07 3509.77 1173.59 3507.82 1172.91 3501.92 1170.82 3491.1 1170.85 3485.48 1170.33 3480.6 1169.87 3475.75 1169.18 3470.88 1168.61 3460.29 1168.89 3449.65 1168.51 3439.1 1169.47 3433.84 1169.95 3428.76 1171.62 3423.64 1172.91 3410.69 1176.14 3416.69 1174.36 3405.6 1178.06 3401.19 1181.92 3394.34 1187.21 3391.85 1192.67 3390.41 1195.85 3390.71 1199.55 3390.14 1202.99 3390.42 1207.57 3389.79 1212.31 3390.99 1216.74 3392.41 1221.93 3395.08 1226.74 3397.87 1231.35 3400.83 1236.25 3403.95 1241.23 3408.17 1245.1 3414.38 1250.79 3421.31 1255.83 3428.79 1259.71 3446.45 1268.87 3463.36 1271.54 3482.91 1273.46 3490.89 1274.25 3498.94 1274.03 3506.96 1274.32 3513.26 1272.6 3519.75 1271.48 3525.86 1269.16 3530.41 1267.44 3534.85 1265.21 3538.74 1262.29 3541.82 1259.98 3544.1 1256.73 3546.47 1253.69 3555.3 1242.41 3554.32 1242.25 3560.22 1228.77 3561.65 1217.28 3563.7 1211.9 3559.36 1200.41 3541.79 1153.88 3553.57 1193.57 3540.46 1164.31 3538.61 1160.18 3537.8 1155.64 3536.17 1151.42 3529.73 1134.78 3527.48 1135.56 3522.42 1115.32 3518.21 1098.49 3522.49 1116.04 3519.84 1104.15 3519.59 1103 3519.18 1101.88 3518.99 1100.71 3518.61 1098.43 3518.66 1096.08 3518.13 1093.84 3517.01 1089.08 3512.53 1078.19 3510.4 1074.93 3504.21 1065.46 3496.17 1059.31 3487.2 1052.58 3482.75 1049.24 3478.47 1045.54 3473.46 1043.13 3454.52 1033.99 3441.06 1029.11 3421.92 1025.08 3416.81 1024 3411.61 1023.36 3406.46 1022.5 3395.86 1022.79 3384.94 1020.72 3374.67 1023.36 3363.29 1026.29 3342.95 1039.3 3332.58 1048.28 3328.3 1052 3323.87 1055.71 3320.56 1060.32 3316.79 1065.57 3307.28 1088.74 3305.09 1093.84 3304.2 1099.41 3299.08 1129.86 3299.08 1135.95 3299.08 1152.01 3299.89 1168.11 3301.66 1184.08 3302.19 1188.85 3304.26 1193.34 3305.95 1197.83 3311.44 1212.35 3316.5 1222.8 3325.71 1235.64 3330.69 1242.59 3335.99 1249.37 3342.03 1255.41 3349.25 1262.63 3368.42 1276.24 3377.25 1282.06 3400.36 1297.28 3425.16 1310.77 3451.98 1318.15 3467.61 1322.45 3472.73 1321.94 3489.78 1323.31 3503.52 1322.74 3517.33 1323.04 3531.01 1321.59 3542.9 1320.33 3550.81 1315.6 3560.22 1308.7 3564.47 1305.57 3568.44 1302.05 3572.24 1298.38 3575.89 1294.87 3579.64 1291.36 3582.55 1287.21 3587.85 1279.68 3589.38 1272.53 3592 1264.01 3591.71 1259.42 3592.28 1254.7 3591.14 1250.26 3586.32 1231.49 3571.75 1216.24 3558.5 1202.99 3554.38 1198.87 3544.83 1190.3 3539.6 1186.66 3536.01 1184.16 3532.26 1181.89 3528.43 1179.78 3520.8 1175.58 3513.29 1171.07 3505.24 1167.75 3500.37 1165.74 3495.63 1163.4 3490.64 1161.73 3486.16 1160.24 3481.42 1159.65 3476.89 1158.29 3472.82 1157.07 3468.98 1155.09 3464.87 1154 3454.93 1151.36 3444.63 1150.15 3434.8 1147.12L3401.3 1136.81C3384.83 1131.94 3362.12 1126.28 3346.33 1124.78L3310.25 1121.34C3300.51 1122.2 3290.64 1122.04 3281.04 1123.92 3278.63 1124.39 3276.54 1126.27 3275.03 1128.21 3270.84 1133.6 3264.2 1150.82 3262.14 1155.72 3258.83 1177.83 3256.82 1181.79 3263 1209 3265.21 1218.73 3278.62 1240.72 3284.48 1248.54 3290.33 1256.34 3296.2 1264.28 3303.38 1270.88 3327.91 1293.44 3354.78 1314.77 3385.84 1327.61 3392.87 1330.51 3399.92 1333.54 3407.32 1335.34 3437.39 1342.66 3443.78 1342.59 3469.16 1344.8 3476.04 1343.36 3483.62 1343.87 3489.78 1340.5 3496.14 1337.01 3496.65 1324.58 3497.51 1319.01 3496.36 1314.71 3495.89 1310.18 3494.07 1306.12 3492.12 1301.77 3489.45 1297.7 3486.34 1294.09 3476.5 1282.67 3463.71 1274.54 3451.12 1266.59 3442.11 1260.89 3432.93 1255.47 3423.64 1250.26 3414.03 1244.87 3404.43 1239.41 3394.43 1234.79 3379.23 1227.75 3362.17 1221.38 3345.47 1218.46 3340.95 1217.66 3336.3 1217.88 3331.72 1217.6 3326 1218.74 3320.1 1219.23 3314.54 1221.03 3306.61 1223.62 3290.08 1230.99 3282.76 1237.36 3275 1244.11 3273.29 1250.55 3269.02 1259.71 3268.73 1266.01 3267.27 1272.37 3268.16 1278.62 3269.02 1284.63 3271.4 1290.41 3274.17 1295.81 3279.98 1307.12 3290.36 1317.14 3299.94 1325.03 3309.09 1332.57 3317.57 1341.44 3328.29 1346.51 3337.79 1351.02 3359.9 1361.95 3368.66 1363.7 3386.07 1367.19 3377.2 1365.74 3395.29 1368 3396.38 1367.92 3422.79 1367.74 3429.65 1363.7 3431.92 1362.36 3433.09 1359.69 3434.8 1357.69 3435.66 1355.39 3437.38 1353.26 3437.38 1350.81 3437.38 1343.6 3437.39 1336.06 3434.8 1329.32 3430.81 1318.94 3397.2 1296.58 3396.15 1295.81 3381.92 1285.45 3375.71 1281.16 3360.07 1274.32 3356.75 1272.87 3353.29 1271.69 3349.76 1270.88 3346.96 1270.24 3344.04 1270.31 3341.17 1270.02 3337.74 1270.6 3334.15 1270.59 3330.86 1271.74 3328.31 1272.63 3325.9 1274.13 3323.99 1276.04 3320.98 1279.05 3317.89 1286.98 3316.26 1290.65 3316.83 1297.81 3316.08 1305.21 3317.98 1312.14 3320.6 1321.67 3329.84 1329.42 3336.88 1335.34 3340.17 1338.11 3343.48 1340.9 3347.19 1343.08 3354.94 1347.63 3368.56 1352.94 3377.25 1355.11 3388.35 1357.89 3395.3 1357.85 3406.46 1358.55 3410.18 1357.69 3414.15 1357.57 3417.62 1355.97 3421.73 1354.07 3424.96 1350.64 3428.79 1348.23 3434.99 1344.34 3441.56 1341.06 3447.69 1337.06 3477.21 1317.82 3508.78 1298.2 3526.72 1266.59 3530.67 1259.61 3537.51 1241.33 3539.6 1233.93 3541.11 1228.57 3541.89 1223.04 3543.04 1217.6 3543.32 1213.01 3544.32 1208.42 3543.9 1203.85 3543.27 1197.16 3536.52 1177.91 3534.45 1172.91 3529.77 1161.61 3523.44 1148.91 3515.55 1139.39 3511.16 1134.08 3506.03 1129.42 3500.95 1124.78 3493.09 1117.61 3480.78 1108.21 3471.74 1102.43 3464.26 1097.65 3449.56 1089.35 3440.82 1086.1 3435.8 1084.24 3430.54 1083.1 3425.35 1081.8 3420.23 1080.52 3415.11 1079.19 3409.89 1078.37 3400.2 1076.84 3387.13 1076.34 3377.25 1075.79 3372.96 1076.07 3368.59 1075.8 3364.37 1076.65 3358.9 1077.74 3345.35 1083.12 3340.31 1086.1 3336.31 1088.47 3325.76 1098.09 3323.13 1100.71 3320.41 1103.44 3317.86 1106.33 3315.4 1109.31 3308.16 1118.08 3301.53 1127.39 3296.5 1137.67 3287.56 1155.98 3286.88 1163.3 3281.9 1183.22 3280.86 1199.41 3278.53 1216.02 3281.9 1232.21 3283.27 1238.77 3286 1245.01 3288.77 1251.11 3291.74 1257.65 3294.9 1264.19 3299.08 1270.02 3302.98 1275.46 3307.8 1280.23 3312.83 1284.63 3328.53 1298.38 3341.99 1306.17 3361.79 1313.85 3371.25 1317.53 3380.97 1320.85 3390.99 1322.45 3402.6 1324.31 3414.47 1323.6 3426.21 1324.17 3435.09 1322.74 3444.33 1322.77 3452.84 1319.87 3458.93 1317.8 3465.04 1314.5 3469.16 1309.56 3475.17 1302.34 3484.86 1270.18 3487.2 1263.15 3488.05 1234.45 3490.03 1232.37 3482.91 1203.85 3478.89 1187.75 3474.54 1175.87 3464.01 1163.45 3452.22 1149.54 3446.64 1148.18 3429.65 1140.25 3416.65 1134.17 3409.16 1130.84 3395.29 1128.21 3390.19 1127.25 3384.98 1127.07 3379.83 1126.49 3375.53 1127.35 3371.03 1127.51 3366.94 1129.07 3356.7 1132.99 3343.51 1141.96 3335.16 1148.84 3330.31 1152.83 3325.27 1156.77 3321.42 1161.73 3311.67 1174.27 3309.33 1184.88 3304.24 1199.55 3303.54 1214.76 3301.62 1219.21 3306.81 1233.07 3310.08 1241.79 3315.46 1249.93 3323.13 1255.41 3327.62 1258.62 3332.72 1260.88 3337.74 1263.15 3350.82 1269.07 3370.42 1276.11 3384.12 1279.48 3390.89 1281.14 3397.87 1281.77 3404.74 1282.91 3411.9 1280.91 3419.53 1280.16 3426.21 1276.9 3437.53 1271.38 3441.74 1263.22 3448.55 1253.69 3449.69 1248.54 3451.21 1243.45 3451.98 1238.22 3452.99 1231.34 3453.29 1215.53 3451.98 1209 3449.5 1196.57 3442.94 1181.44 3435.66 1171.19 3432.03 1166.06 3427.44 1161.65 3422.78 1157.43 3416.1 1151.4 3407.79 1145.09 3398.73 1142.82 3395.38 1141.99 3391.85 1142.25 3388.42 1141.96 3384.12 1142.25 3379.44 1141.01 3375.53 1142.82 3369.2 1145.76 3357.89 1161.24 3354.06 1166.03 3352.05 1171.47 3349.11 1176.66 3348.04 1182.36 3346.79 1189.12 3347.19 1196.1 3347.19 1202.99 3347.19 1209.58 3346.48 1216.35 3348.04 1222.75 3350.94 1234.61 3361.56 1250.81 3370.38 1258.85 3380.84 1268.39 3390.06 1269.57 3403.02 1273.46 3407.89 1272.89 3413.38 1274.19 3417.62 1271.74 3432.58 1263.13 3433.32 1251.26 3438.24 1236.5 3437.67 1229.34 3438.04 1222.04 3436.52 1215.02 3433.06 1198.98 3427.07 1187.18 3416.76 1174.62 3414.69 1172.1 3411.61 1170.61 3409.03 1168.61 3403.88 1170.33 3397.85 1170.41 3393.57 1173.76 3388.67 1177.61 3386.99 1200.11 3386.7 1202.13 3387.84 1209.58 3387.51 1217.41 3390.14 1224.47 3393.05 1232.3 3398.28 1239.08 3403.02 1245.96 3412.05 1259.07 3420.53 1267.99 3433.09 1277.76 3437.66 1281.32 3442.33 1284.99 3447.69 1287.21 3450.87 1288.53 3454.56 1287.78 3458 1288.07 3462.01 1283.77 3467.11 1280.28 3470.02 1275.18 3481.6 1254.91 3479.06 1243.63 3480.33 1220.17 3478.61 1208.72 3477.66 1197.12 3475.18 1185.8 3471.2 1167.66 3464.54 1150.76 3456.28 1134.23 3451.29 1124.26 3443.3 1110.3 3434.8 1102.43 3431.31 1099.19 3427.01 1096.89 3422.78 1094.7 3414.45 1090.36 3409.13 1090.73 3399.58 1089.54 3394.72 1090.97 3389.27 1091.12 3384.98 1093.84 3373.91 1100.85 3368.79 1115.93 3363.51 1126.49 3361.79 1135.38 3358.75 1144.1 3358.35 1153.14 3357.59 1170.61 3358.02 1188.2 3360.07 1205.56 3361.19 1215.02 3364.98 1223.97 3367.8 1233.07 3372.98 1249.75 3376.85 1261.43 3386.7 1276.04 3390.68 1281.94 3395.49 1287.26 3400.44 1292.37 3409.22 1301.42 3417.76 1308.58 3429.65 1313 3434.6 1314.83 3439.96 1315.29 3445.11 1316.43 3456.85 1314.43 3469.64 1315.67 3480.33 1310.42 3492.09 1304.64 3498.15 1281.04 3501.81 1270.88 3501.52 1261.71 3502.52 1252.42 3500.95 1243.38 3499.05 1232.49 3495.58 1221.86 3491.5 1211.58 3483.45 1191.32 3473.08 1173.22 3458 1157.43 3447.53 1146.49 3434.17 1136.71 3419.34 1132.51 3405.42 1128.57 3385 1127.62 3370.38 1126.49 3364.94 1127.35 3359.04 1126.72 3354.06 1129.07 3348.36 1131.77 3343.66 1136.4 3339.45 1141.11 3322.87 1159.65 3323.79 1164.72 3315.4 1188.38 3314.54 1197.54 3312.53 1206.67 3312.83 1215.88 3313.39 1233.27 3319.02 1251.86 3328.29 1266.59 3333.27 1274.5 3339.21 1282.01 3346.33 1288.07 3354.85 1295.34 3364.39 1301.69 3374.67 1306.12 3399.09 1316.64 3417.53 1315.17 3443.39 1316.43 3453.13 1313 3463.5 1311 3472.6 1306.12 3499.44 1291.72 3504.26 1282.84 3523.28 1261.43 3526.14 1251.97 3531.38 1242.93 3531.87 1233.07 3532.84 1213.56 3531.29 1193.8 3527.57 1174.62 3525.77 1165.31 3520.24 1157.08 3515.55 1148.84 3510.76 1140.41 3505.72 1131.97 3499.23 1124.78 3487.67 1111.96 3466.74 1097.07 3450.27 1091.26 3439.78 1087.55 3428.5 1086.67 3417.62 1084.38L3376.39 1086.1C3353.81 1091.12 3336.16 1108.66 3322.27 1125.64 3314.43 1135.23 3307.44 1145.61 3301.66 1156.58 3296.5 1166.36 3293.64 1177.2 3289.63 1187.52 3285.69 1209.52 3280.4 1229.38 3282.76 1251.97 3283.71 1261.1 3285.71 1270.33 3289.63 1278.62 3299.26 1299 3314.27 1307.1 3334.3 1316.43 3345.06 1321.45 3356.23 1325.83 3367.8 1328.47 3379.02 1331.02 3390.71 1330.76 3402.16 1331.9 3411.04 1330.18 3420.55 1330.47 3428.79 1326.75 3454.17 1315.28 3459.36 1302.53 3475.18 1281.2 3479.94 1252.61 3483.93 1247.42 3476.04 1218.46 3473.64 1209.67 3469.38 1201.44 3464.87 1193.53 3454.68 1175.69 3443.17 1162.4 3426.21 1150.56 3419.07 1145.57 3411.25 1141.38 3403.02 1138.53 3396.17 1136.15 3388.7 1136.24 3381.55 1135.09 3375.25 1135.95 3368.42 1134.99 3362.65 1137.67 3343.6 1146.5 3343.31 1158.97 3336.02 1177.2 3334.59 1187.23 3331.99 1197.16 3331.72 1207.28 3331.02 1233.98 3335.7 1255.39 3345.47 1280.34 3351.96 1296.91 3360.75 1312.96 3377.25 1321.59 3383.22 1324.71 3390.42 1324.45 3397.01 1325.89 3408.13 1317.69 3424.4 1307.14 3431.37 1294.95 3436.44 1286.06 3437.67 1275.47 3440.82 1265.73 3437.09 1240.23 3436.8 1213.99 3429.65 1189.23 3426.01 1176.63 3416.75 1166.33 3409.03 1155.72 3400.56 1144.06 3386.43 1127.85 3372.1 1121.34 3368.41 1119.66 3364.08 1120.19 3360.07 1119.62 3355.78 1122.2 3350.3 1123.43 3347.19 1127.35 3331.47 1147.14 3332.1 1160.05 3327.43 1184.08 3327.14 1194.39 3325.75 1204.73 3326.57 1215.02 3328.53 1239.58 3335.72 1262.46 3346.33 1284.63 3350.55 1293.45 3355.36 1302.19 3361.79 1309.56 3375.73 1325.55 3385.83 1326.62 3404.74 1333.62 3411.9 1332.48 3420.02 1333.96 3426.21 1330.18 3445.66 1318.34 3447.42 1299.77 3453.7 1280.34 3452.84 1268.3 3453.52 1256.06 3451.12 1244.24 3446.86 1223.16 3436.18 1203.5 3424.5 1185.8 3421.53 1181.31 3412.35 1167.44 3404.74 1162.59 3403.44 1161.76 3401.88 1161.45 3400.44 1160.87 3397.29 1162.31 3393.03 1162.37 3390.99 1165.17 3385.62 1172.57 3386.21 1190.13 3385.84 1197.83 3389.19 1218.6 3391.08 1236.19 3398.73 1256.27 3406.92 1277.8 3405.21 1275.15 3417.62 1282.91 3419.91 1279.76 3423.23 1277.15 3424.5 1273.46 3429.34 1259.28 3430.59 1237.02 3427.07 1222.75 3424.34 1211.65 3419.17 1201.25 3414.19 1190.95 3412.43 1187.33 3397.39 1161.89 3391.85 1156.58 3387.82 1152.7 3372.23 1144.47 3366.94 1142.82 3363.08 1141.62 3358.93 1141.68 3354.92 1141.11 3352.05 1144.83 3348.13 1147.94 3346.33 1152.28 3338.09 1172.16 3338.99 1192.12 3341.17 1213.3 3343.34 1234.29 3351.72 1278.27 3359.21 1299.24 3363.55 1311.4 3375.84 1339.03 3388.42 1349.09 3393.03 1352.78 3399.3 1353.68 3404.74 1355.97 3417.34 1351.1 3432.98 1350.91 3442.53 1341.36 3453.06 1330.83 3453.32 1270.72 3453.7 1264.01 3450.55 1248.25 3448.3 1232.29 3444.25 1216.74 3438.18 1193.42 3428.38 1170.75 3416.76 1149.7 3411.15 1139.53 3398.02 1117.34 3386.7 1109.31 3383.01 1106.68 3378.11 1106.44 3373.81 1105.01 3368.09 1105.58 3362.02 1104.69 3356.63 1106.73 3336.17 1114.46 3332.49 1122.71 3318.84 1138.53 3316.26 1147.69 3313 1156.7 3311.11 1166.03 3306.32 1189.65 3304.43 1211.7 3310.25 1235.64 3312.49 1244.86 3317.26 1253.38 3322.27 1261.43 3326.79 1268.68 3331.79 1276.03 3338.6 1281.2 3347.57 1288.01 3358.1 1292.72 3368.66 1296.67 3395.87 1306.83 3402.5 1305.24 3428.79 1306.12 3435.38 1304.97 3442.19 1304.75 3448.55 1302.68 3453.79 1300.98 3458.66 1298.14 3463.15 1294.95 3479.33 1283.44 3481.44 1279.17 3493.22 1264.87 3499.37 1244.62 3502.16 1241.63 3500.09 1218.46 3498.62 1202 3492.29 1188.89 3482.91 1175.48 3477.55 1167.82 3471.07 1161 3464.87 1154 3459.9 1148.39 3455.01 1142.65 3449.41 1137.67 3445.18 1133.91 3429.2 1122.97 3422.78 1119.62 3420.04 1118.19 3417 1117.45 3414.19 1116.18 3411.27 1114.87 3408.54 1113.15 3405.6 1111.88 3397.69 1108.49 3393.56 1107.66 3384.98 1105.87 3378.5 1104.52 3371.87 1103.29 3365.22 1103.29" stroke="#441012" stroke-width="13.75" stroke-linecap="round" stroke-linejoin="round" stroke-miterlimit="10" fill="none" fill-rule="evenodd"/></g></svg>