<svg width="651" height="651" xmlns="http://www.w3.org/2000/svg" xmlns:xlink="http://www.w3.org/1999/xlink" xml:space="preserve" overflow="hidden"><defs><clipPath id="clip0"><rect x="1528" y="0" width="651" height="651"/></clipPath><linearGradient x1="2050.97" y1="467.094" x2="1656.03" y2="183.906" gradientUnits="userSpaceOnUse" spreadMethod="reflect" id="fill1"><stop offset="0" stop-color="#FFBA71"/><stop offset="0.15" stop-color="#FFBA71"/><stop offset="0.66" stop-color="#FF9053"/><stop offset="1" stop-color="#FF9053"/></linearGradient><linearGradient x1="2050.97" y1="467.094" x2="1656.03" y2="183.906" gradientUnits="userSpaceOnUse" spreadMethod="reflect" id="fill2"><stop offset="0" stop-color="#FFBA71"/><stop offset="0.15" stop-color="#FFBA71"/><stop offset="0.66" stop-color="#FF9053"/><stop offset="1" stop-color="#FF9053"/></linearGradient></defs><g clip-path="url(#clip0)" transform="translate(-1528 0)"><rect x="1528" y="0" width="651" height="651" fill="#000000" fill-opacity="0"/><path d="M1951.32 405C1919.45 402.135 1860.69 385.009 1811.78 361.171 1682.48 298.152 1672.38 258.573 1766.13 173.821 1851.29 96.8373 1879.11 82.151 1947.87 231.401 1968.99 277.233 1996.4 321.065 2003 362.889L1951.32 405Z" stroke="#FFFFFF" stroke-width="27.5" stroke-linecap="round" stroke-linejoin="round" stroke-miterlimit="10" fill="none" fill-rule="evenodd"/><path d="M1916 494.323C1906.82 476.91 1906.24 463.779 1901.36 442.084 1844.82 420.103 1789.15 403.261 1734.33 414.679 1732.61 457.784 1736.91 493.182 1765.32 533.718 1815.55 536.001 1865.78 524.583 1916 494.323Z" stroke="#FFFFFF" stroke-width="27.5" stroke-linecap="round" stroke-linejoin="round" stroke-miterlimit="10" fill="none" fill-rule="evenodd"/><path d="M1951.32 405C1919.45 402.135 1860.69 385.009 1811.78 361.171 1682.48 298.152 1672.38 258.573 1766.13 173.821 1851.29 96.8373 1879.11 82.151 1947.87 231.401 1968.99 277.233 1996.4 321.065 2003 362.889L1951.32 405Z" fill="url(#fill1)" fill-rule="evenodd"/><path d="M1916 494.323C1906.82 476.91 1906.24 463.779 1901.36 442.084 1844.82 420.103 1789.15 403.261 1734.33 414.679 1732.61 457.784 1736.91 493.182 1765.32 533.718 1815.55 536.001 1865.78 524.583 1916 494.323Z" fill="url(#fill2)" fill-rule="evenodd"/><path d="M1986.17 376 1981.23 357.595C1936.03 199.383 1879.3 142.059 1865.35 138.534 1845.39 133.49 1790.1 166.702 1727.98 223.426L1712 238.668 1715.87 229.719C1726.07 213.145 1743 194.823 1766.41 173.686 1851.47 96.8852 1879.26 82.2339 1947.94 231.129 1969.03 276.852 1996.4 320.58 2003 362.305Z" fill="#FFCC8F" fill-rule="evenodd"/><path d="M1757.75 520 1748.28 503.678C1735.14 474.726 1733.03 446.853 1734.33 414.663 1789.27 403.294 1845.07 420.064 1901.73 441.95 1902.95 447.35 1903.91 452.218 1904.79 456.753L1907 467.391 1888.24 459.971C1733.21 400.618 1729.31 427.005 1752.97 504.828Z" fill="#FFCC8F" fill-rule="evenodd"/><path d="M1951.82 405.5C1919.95 402.636 1861.19 385.509 1812.28 361.671 1682.98 298.652 1672.88 259.074 1766.63 174.321 1851.79 97.3375 1879.61 82.6512 1948.37 231.901 1969.49 277.733 1996.9 321.565 2003.5 363.39L1951.82 405.5Z" stroke="#561D1D" stroke-width="9.16667" stroke-linecap="round" stroke-linejoin="round" stroke-miterlimit="10" fill="none" fill-rule="evenodd"/><path d="M1916.5 494.824C1907.32 477.41 1906.74 464.279 1901.86 442.584 1845.32 420.603 1789.65 403.761 1734.83 415.179 1733.11 458.284 1737.41 493.682 1765.82 534.218 1816.05 536.501 1866.27 525.083 1916.5 494.824Z" stroke="#561D1D" stroke-width="9.16667" stroke-linecap="round" stroke-linejoin="round" stroke-miterlimit="10" fill="none" fill-rule="evenodd"/></g></svg>