<svg width="168" height="116" xmlns="http://www.w3.org/2000/svg" xmlns:xlink="http://www.w3.org/1999/xlink" xml:space="preserve" overflow="hidden"><defs><filter id="fx0" x="-10%" y="-10%" width="120%" height="120%" filterUnits="userSpaceOnUse" primitiveUnits="userSpaceOnUse"><feComponentTransfer color-interpolation-filters="sRGB"><feFuncR type="discrete" tableValues="0 0"/><feFuncG type="discrete" tableValues="0 0"/><feFuncB type="discrete" tableValues="0 0"/><feFuncA type="linear" slope="0.4" intercept="0"/></feComponentTransfer><feGaussianBlur stdDeviation="0 0"/></filter><clipPath id="clip1"><path d="M143 185 208 263 273 185.001 271.286 186.237C253.221 196.911 231.443 203.144 208 203.144 184.558 203.144 162.78 196.911 144.715 186.237ZM129 171 297 171 297 287 129 287Z" fill-rule="evenodd" clip-rule="evenodd"/></clipPath><clipPath id="clip2"><rect x="1" y="1" width="158" height="106"/></clipPath></defs><g transform="translate(-129 -171)"><g clip-path="url(#clip1)"><g clip-path="url(#clip2)" filter="url(#fx0)" transform="translate(138 180)"><g><path d="M14.7227 14.7227 16.4378 15.9601C34.5028 26.634 56.2809 32.8666 79.7232 32.8666 103.166 32.8666 124.944 26.634 143.009 15.9601L144.723 14.7234 79.723 92.7227Z" stroke="#94C033" stroke-width="27" stroke-linecap="round" stroke-linejoin="round" stroke-miterlimit="10" fill="#94C033" fill-rule="evenodd"/></g></g></g><path d="M143 185 144.715 186.237C162.78 196.911 184.558 203.144 208 203.144 231.443 203.144 253.221 196.911 271.286 186.237L273 185.001 208 263Z" stroke="#94C033" stroke-width="27.5" stroke-linecap="round" stroke-linejoin="round" stroke-miterlimit="10" fill="#94C033" fill-rule="evenodd"/></g></svg>