<svg width="168" height="116" xmlns="http://www.w3.org/2000/svg" xmlns:xlink="http://www.w3.org/1999/xlink" xml:space="preserve" overflow="hidden"><defs><filter id="fx0" x="-10%" y="-10%" width="120%" height="120%" filterUnits="userSpaceOnUse" primitiveUnits="userSpaceOnUse"><feComponentTransfer color-interpolation-filters="sRGB"><feFuncR type="discrete" tableValues="0 0"/><feFuncG type="discrete" tableValues="0 0"/><feFuncB type="discrete" tableValues="0 0"/><feFuncA type="linear" slope="0.4" intercept="0"/></feComponentTransfer><feGaussianBlur stdDeviation="0 0"/></filter><clipPath id="clip1"><path d="M327 185 392 263 457 185.001 455.286 186.237C437.221 196.911 415.443 203.144 392 203.144 368.558 203.144 346.78 196.911 328.715 186.237ZM313 171 481 171 481 287 313 287Z" fill-rule="evenodd" clip-rule="evenodd"/></clipPath><clipPath id="clip2"><rect x="1" y="1" width="158" height="106"/></clipPath></defs><g transform="translate(-313 -171)"><g clip-path="url(#clip1)"><g clip-path="url(#clip2)" filter="url(#fx0)" transform="translate(322 180)"><g><path d="M14.7226 14.7227 16.4376 15.9601C34.5027 26.634 56.2808 32.8666 79.7231 32.8666 103.166 32.8666 124.943 26.634 143.008 15.9601L144.723 14.7234 79.7229 92.7227Z" stroke="#A763B2" stroke-width="27" stroke-linecap="round" stroke-linejoin="round" stroke-miterlimit="10" fill="#A763B2" fill-rule="evenodd"/></g></g></g><path d="M327 185 328.715 186.237C346.78 196.911 368.558 203.144 392 203.144 415.443 203.144 437.221 196.911 455.286 186.237L457 185.001 392 263Z" stroke="#A763B2" stroke-width="27.5" stroke-linecap="round" stroke-linejoin="round" stroke-miterlimit="10" fill="#A763B2" fill-rule="evenodd"/></g></svg>