<svg width="3514" height="788" xmlns="http://www.w3.org/2000/svg" xmlns:xlink="http://www.w3.org/1999/xlink" xml:space="preserve" overflow="hidden"><defs><filter id="fx0" x="-10%" y="-10%" width="120%" height="120%" filterUnits="userSpaceOnUse" primitiveUnits="userSpaceOnUse"><feComponentTransfer color-interpolation-filters="sRGB"><feFuncR type="discrete" tableValues="0 0"/><feFuncG type="discrete" tableValues="0 0"/><feFuncB type="discrete" tableValues="0 0"/><feFuncA type="linear" slope="0.4" intercept="0"/></feComponentTransfer><feGaussianBlur stdDeviation="0 0"/></filter><linearGradient x1="1509.72" y1="9.72266" x2="1509.72" y2="697.723" gradientUnits="userSpaceOnUse" spreadMethod="reflect" id="fill1"><stop offset="0" stop-color="#260B33" stop-opacity="0.901961"/><stop offset="0.01" stop-color="#260B33" stop-opacity="0.901961"/><stop offset="0.99" stop-color="#260B33"/><stop offset="1" stop-color="#260B33"/></linearGradient><linearGradient x1="2200" y1="1759" x2="2200" y2="2447" gradientUnits="userSpaceOnUse" spreadMethod="reflect" id="fill2"><stop offset="0" stop-color="#260B33" stop-opacity="0.901961"/><stop offset="0.01" stop-color="#260B33" stop-opacity="0.901961"/><stop offset="0.99" stop-color="#260B33"/><stop offset="1" stop-color="#260B33"/></linearGradient></defs><g transform="translate(-443 -1687)"><rect x="443" y="1687" width="3514" height="788" fill="#FFFFFF" fill-opacity="0"/><g filter="url(#fx0)" transform="translate(700 1759)"><g><path d="M1077.71 9.72266 1096.22 23.4787C1154.15 58.732 1223.99 79.3171 1299.16 79.3171 1374.33 79.3171 1444.17 58.732 1502.1 23.4787L1520.61 9.72266 1539.12 23.4787C1597.05 58.732 1666.88 79.3171 1742.06 79.3171 1817.23 79.3171 1887.06 58.732 1945 23.4787L1963.5 9.72266 1982.01 23.4787C2039.94 58.732 2109.78 79.3171 2184.95 79.3171 2260.12 79.3171 2329.96 58.732 2387.89 23.4787L2395.85 17.5616 2408.87 28.4491C2461.59 64.5471 2525.15 85.6252 2593.56 85.6252 2650.57 85.6252 2704.21 70.9876 2751.01 45.2183L2767.83 34.8625 2782.34 64.7534C2801.3 94.6306 2826.86 119.423 2858.69 136.891 2898.48 158.727 2943.36 166.533 2989.13 162.037L2994.8 161.182 2974.79 206.36C2963.49 242.036 2960.49 279.659 2967.34 317.452 2970.76 336.349 2976.48 354.394 2984.24 371.442L3009.72 413.432 2992.15 420.58C2961.16 437.396 2935.27 460.688 2916.76 490.239 2898.25 519.79 2888.88 552.802 2887.79 587.196L2891.81 634.306 2870.27 626.84C2821.91 612.741 2770.47 610.968 2719.97 624.109 2679.57 634.622 2643.59 653.685 2613.11 679.156L2611.34 680.988 2588.04 660.427C2538.09 624.329 2477.87 603.25 2413.05 603.25 2348.23 603.25 2288.01 624.329 2238.05 660.427L2210.98 684.321 2177.64 657.122C2123.6 621.023 2058.46 599.945 1988.34 599.945 1918.22 599.945 1853.08 621.023 1799.04 657.122L1773.08 678.301 1750.69 662.906C1686.58 626.807 1609.3 605.729 1526.11 605.729 1442.92 605.729 1365.64 626.807 1301.53 662.906L1251.48 697.32 1227.01 678.605C1169.37 642.507 1099.88 621.429 1025.08 621.429 950.275 621.429 880.785 642.507 823.142 678.605L805.49 692.105 793.834 682.737C738.991 646.639 672.876 625.56 601.708 625.56 530.54 625.56 464.425 646.639 409.581 682.737L390.938 697.723 371.293 678.044C342.496 654.91 308.882 638.539 271.524 630.979 234.165 623.419 196.598 625.387 160.652 635.42L125.461 649.446 128.92 638.238C138.606 599.066 135.925 560.775 118.681 526.969 104.885 499.925 83.074 478.311 55.4443 462.384L13.0048 444.12 21.3254 435.303C47.7857 403.948 62.8157 368.015 62.8154 329.823 62.8157 291.63 47.7857 255.698 21.3254 224.342L9.7226 212.048 10.5643 212.17C62.4996 214.727 114.022 202.141 158.276 172.75 202.529 143.359 233.227 101.338 249.497 53.4843L256.087 24.9099 273.664 35.3033C322.402 61.0722 378.256 75.7098 437.621 75.7098 508.86 75.7098 575.041 54.6317 629.94 18.5336L637.983 12.0747 653.328 23.4787C711.257 58.732 781.093 79.3171 856.266 79.3171 931.439 79.3171 1001.27 58.732 1059.2 23.4787Z" stroke="#260B33" stroke-width="18" stroke-linecap="round" stroke-linejoin="round" stroke-miterlimit="10" fill="url(#fill1)" fill-rule="evenodd"/></g></g><path d="M1767.99 1759 1786.5 1772.76C1844.43 1808.01 1914.27 1828.59 1989.44 1828.59 2064.61 1828.59 2134.45 1808.01 2192.38 1772.76L2210.89 1759 2229.4 1772.76C2287.32 1808.01 2357.16 1828.59 2432.33 1828.59 2507.51 1828.59 2577.34 1808.01 2635.27 1772.76L2653.78 1759 2672.29 1772.76C2730.22 1808.01 2800.06 1828.59 2875.23 1828.59 2950.4 1828.59 3020.24 1808.01 3078.17 1772.76L3086.13 1766.84 3099.15 1777.73C3151.87 1813.82 3215.43 1834.9 3283.84 1834.9 3340.85 1834.9 3394.49 1820.26 3441.29 1794.5L3458.11 1784.14 3472.62 1814.03C3491.58 1843.91 3517.14 1868.7 3548.97 1886.17 3588.76 1908 3633.64 1915.81 3679.41 1911.31L3685.08 1910.46 3665.06 1955.64C3653.77 1991.31 3650.77 2028.94 3657.61 2066.73 3661.03 2085.63 3666.76 2103.67 3674.52 2120.72L3700 2162.71 3682.43 2169.86C3651.44 2186.67 3625.54 2209.97 3607.04 2239.52 3588.53 2269.07 3579.16 2302.08 3578.07 2336.47L3582.09 2383.58 3560.54 2376.12C3512.18 2362.02 3460.75 2360.25 3410.25 2373.39 3369.85 2383.9 3333.87 2402.96 3303.39 2428.43L3301.62 2430.27 3278.32 2409.7C3228.36 2373.61 3168.15 2352.53 3103.32 2352.53 3038.5 2352.53 2978.28 2373.61 2928.33 2409.7L2901.26 2433.6 2867.92 2406.4C2813.88 2370.3 2748.74 2349.22 2678.62 2349.22 2608.5 2349.22 2543.36 2370.3 2489.32 2406.4L2463.36 2427.58 2440.97 2412.18C2376.86 2376.08 2299.58 2355.01 2216.39 2355.01 2133.2 2355.01 2055.91 2376.08 1991.8 2412.18L1941.76 2446.6 1917.29 2427.88C1859.64 2391.78 1790.15 2370.71 1715.35 2370.71 1640.55 2370.71 1571.06 2391.78 1513.42 2427.88L1495.77 2441.38 1484.11 2432.01C1429.27 2395.92 1363.15 2374.84 1291.98 2374.84 1220.82 2374.84 1154.7 2395.92 1099.86 2432.01L1081.21 2447 1061.57 2427.32C1032.77 2404.19 999.16 2387.82 961.801 2380.26 924.442 2372.7 886.875 2374.66 850.929 2384.7L815.739 2398.72 819.198 2387.51C828.883 2348.34 826.203 2310.05 808.958 2276.25 795.162 2249.2 773.351 2227.59 745.722 2211.66L703.282 2193.4 711.603 2184.58C738.063 2153.23 753.093 2117.29 753.093 2079.1 753.093 2040.91 738.063 2004.98 711.603 1973.62L700 1961.33 700.842 1961.45C752.777 1964 804.3 1951.42 848.553 1922.03 892.806 1892.64 923.505 1850.62 939.774 1802.76L946.365 1774.19 963.941 1784.58C1012.68 1810.35 1068.53 1824.99 1127.9 1824.99 1199.14 1824.99 1265.32 1803.91 1320.22 1767.81L1328.26 1761.35 1343.6 1772.76C1401.53 1808.01 1471.37 1828.59 1546.54 1828.59 1621.72 1828.59 1691.55 1808.01 1749.48 1772.76Z" stroke="#260B33" stroke-width="18.3333" stroke-linecap="round" stroke-linejoin="round" stroke-miterlimit="10" fill="url(#fill2)" fill-rule="evenodd"/></g></svg>