<svg width="3514" height="788" xmlns="http://www.w3.org/2000/svg" xmlns:xlink="http://www.w3.org/1999/xlink" xml:space="preserve" overflow="hidden"><defs><filter id="fx0" x="-10%" y="-10%" width="120%" height="120%" filterUnits="userSpaceOnUse" primitiveUnits="userSpaceOnUse"><feComponentTransfer color-interpolation-filters="sRGB"><feFuncR type="discrete" tableValues="0 0"/><feFuncG type="discrete" tableValues="0 0"/><feFuncB type="discrete" tableValues="0 0"/><feFuncA type="linear" slope="0.4" intercept="0"/></feComponentTransfer><feGaussianBlur stdDeviation="0 0"/></filter><linearGradient x1="1431.72" y1="6.72247" x2="1431.72" y2="560.723" gradientUnits="userSpaceOnUse" spreadMethod="reflect" id="fill1"><stop offset="0" stop-color="#FFFFFF" stop-opacity="0.901961"/><stop offset="0.01" stop-color="#FFFFFF" stop-opacity="0.901961"/><stop offset="0.99" stop-color="#FFFFFF"/><stop offset="1" stop-color="#FFFFFF"/></linearGradient><linearGradient x1="2200" y1="1848" x2="2200" y2="2402" gradientUnits="userSpaceOnUse" spreadMethod="reflect" id="fill2"><stop offset="0" stop-color="#FFFFFF" stop-opacity="0.901961"/><stop offset="0.01" stop-color="#FFFFFF" stop-opacity="0.901961"/><stop offset="0.99" stop-color="#FFFFFF"/><stop offset="1" stop-color="#FFFFFF"/></linearGradient></defs><g transform="translate(-443 -1687)"><rect x="443" y="1687" width="3514" height="788" fill="#FFFFFF" fill-opacity="0"/><g filter="url(#fx0)" transform="translate(778 1851)"><g><path d="M8.91306 283.902C4.13932 4.68333 78.5884 4.83157 1431.64 7.0805 2784.69 9.32944 2849.59 6.54138 2854.36 283.902 2859.14 561.262 2837.09 560.722 1431.64 560.722 26.1876 560.722 13.6868 563.12 8.91306 283.902Z" fill="url(#fill1)" fill-rule="evenodd"/><path d="M1085.09 14.5996C525.219 14.8817 255.821 21.9752 127.523 69.4915L126.996 69.7122 126.001 77.9795C121.939 90.453 112.976 101.944 100.072 109.497 87.1688 117.049 72.7686 119.232 59.9181 116.657L55.6112 114.87 44.0217 126.906C16.6725 164.938 12.928 215.701 14.1173 283.396 18.8734 554.18 31.3285 551.855 1431.64 551.855 2831.95 551.855 2853.92 552.378 2849.16 283.396 2844.4 14.4147 2779.74 17.1186 1431.64 14.9377 1305.25 14.7333 1190.07 14.5465 1085.09 14.5996ZM1191.29 0.751796C1266.58 0.809587 1346.6 0.944313 1431.64 1.08771 2792.29 3.38129 2857.56 0.537969 2862.36 283.405 2867.16 566.272 2844.99 565.722 1431.64 565.722 18.2857 565.722 5.71478 568.167 0.914245 283.405-3.58646 16.4406 61.934-0.11182 1191.29 0.751796Z" fill="#FFFFFF" fill-rule="evenodd"/></g></g><path d="M777.19 2125.18C772.417 1845.96 846.866 1846.11 2199.92 1848.36 3552.97 1850.61 3617.87 1847.82 3622.64 2125.18 3627.42 2402.54 3605.37 2402 2199.92 2402 794.465 2402 781.964 2404.4 777.19 2125.18Z" fill="url(#fill2)" fill-rule="evenodd"/><path d="M1853.37 1855.88C1293.5 1856.16 1024.1 1863.25 895.8 1910.77L895.273 1910.99 894.278 1919.26C890.217 1931.73 881.253 1943.22 868.35 1950.77 855.446 1958.33 841.046 1960.51 828.195 1957.93L823.888 1956.15 812.299 1968.18C784.95 2006.21 781.205 2056.98 782.395 2124.67 787.151 2395.46 799.606 2393.13 2199.92 2393.13 3600.23 2393.13 3622.19 2393.66 3617.44 2124.67 3612.68 1855.69 3548.02 1858.4 2199.92 1856.21 2073.53 1856.01 1958.34 1855.82 1853.37 1855.88ZM1959.57 1842.03C2034.86 1842.09 2114.87 1842.22 2199.92 1842.36 3560.57 1844.66 3625.84 1841.82 3630.64 2124.68 3635.44 2407.55 3613.27 2407 2199.92 2407 786.563 2407 773.992 2409.44 769.192 2124.68 764.691 1857.72 830.211 1841.17 1959.57 1842.03Z" fill="#FFFFFF" fill-rule="evenodd"/></g></svg>