<svg width="168" height="116" xmlns="http://www.w3.org/2000/svg" xmlns:xlink="http://www.w3.org/1999/xlink" xml:space="preserve" overflow="hidden"><defs><filter id="fx0" x="-10%" y="-10%" width="120%" height="120%" filterUnits="userSpaceOnUse" primitiveUnits="userSpaceOnUse"><feComponentTransfer color-interpolation-filters="sRGB"><feFuncR type="discrete" tableValues="0 0"/><feFuncG type="discrete" tableValues="0 0"/><feFuncB type="discrete" tableValues="0 0"/><feFuncA type="linear" slope="0.4" intercept="0"/></feComponentTransfer><feGaussianBlur stdDeviation="0 0"/></filter><clipPath id="clip1"><path d="M505 185 570 263 635 185.001 633.286 186.237C615.221 196.911 593.443 203.144 570 203.144 546.558 203.144 524.78 196.911 506.715 186.237ZM491 171 659 171 659 287 491 287Z" fill-rule="evenodd" clip-rule="evenodd"/></clipPath><clipPath id="clip2"><rect x="1" y="1" width="158" height="106"/></clipPath></defs><g transform="translate(-491 -171)"><g clip-path="url(#clip1)"><g clip-path="url(#clip2)" filter="url(#fx0)" transform="translate(500 180)"><g><path d="M14.7227 14.7227 16.4378 15.9601C34.5028 26.634 56.2809 32.8666 79.7232 32.8666 103.166 32.8666 124.944 26.634 143.009 15.9601L144.723 14.7234 79.723 92.7227Z" stroke="#FFFFFF" stroke-width="27" stroke-linecap="round" stroke-linejoin="round" stroke-miterlimit="10" fill="#FFFFFF" fill-rule="evenodd"/></g></g></g><path d="M505 185 506.715 186.237C524.78 196.911 546.558 203.144 570 203.144 593.443 203.144 615.221 196.911 633.286 186.237L635 185.001 570 263Z" stroke="#FFFFFF" stroke-width="27.5" stroke-linecap="round" stroke-linejoin="round" stroke-miterlimit="10" fill="#FFFFFF" fill-rule="evenodd"/></g></svg>