<svg width="3514" height="788" xmlns="http://www.w3.org/2000/svg" xmlns:xlink="http://www.w3.org/1999/xlink" xml:space="preserve" overflow="hidden"><defs><filter id="fx0" x="-10%" y="-10%" width="120%" height="120%" filterUnits="userSpaceOnUse" primitiveUnits="userSpaceOnUse"><feComponentTransfer color-interpolation-filters="sRGB"><feFuncR type="discrete" tableValues="0 0"/><feFuncG type="discrete" tableValues="0 0"/><feFuncB type="discrete" tableValues="0 0"/><feFuncA type="linear" slope="0.4" intercept="0"/></feComponentTransfer><feGaussianBlur stdDeviation="0 0"/></filter><linearGradient x1="1497.22" y1="27.2228" x2="1497.22" y2="687.223" gradientUnits="userSpaceOnUse" spreadMethod="reflect" id="fill1"><stop offset="0" stop-color="#FFFFFF" stop-opacity="0.901961"/><stop offset="0.01" stop-color="#FFFFFF" stop-opacity="0.901961"/><stop offset="0.99" stop-color="#FFFFFF"/><stop offset="1" stop-color="#FFFFFF"/></linearGradient><linearGradient x1="2202.5" y1="1799.5" x2="2202.5" y2="2459.5" gradientUnits="userSpaceOnUse" spreadMethod="reflect" id="fill2"><stop offset="0" stop-color="#FFFFFF" stop-opacity="0.901961"/><stop offset="0.01" stop-color="#FFFFFF" stop-opacity="0.901961"/><stop offset="0.99" stop-color="#FFFFFF"/><stop offset="1" stop-color="#FFFFFF"/></linearGradient></defs><g transform="translate(-443 -1687)"><rect x="443" y="1687" width="3514" height="788" fill="#FFFFFF" fill-opacity="0"/><g filter="url(#fx0)" transform="translate(715 1782)"><g><path d="M1949.89 144.225C1933.93 129.684 1888.21 92.8661 1876.53 83.0589L1931.42 59.6013C1978.51 43.9169 2030.28 35.244 2084.63 35.244 2138.97 35.244 2190.75 43.9169 2237.84 59.6013L2263.08 70.3894 2236.78 89.3063C2208.36 114.269 2191.77 144.362 2191.77 176.754L2193.91 189.357 2197.12 170.441C2221.7 99.1698 2327.96 45.5564 2455.32 45.5564 2582.68 45.5564 2688.94 99.1698 2713.52 170.441L2716.73 189.359 2718.87 176.755C2718.87 155.16 2711.49 134.587 2698.16 115.874L2678.84 94.7522 2690.13 95.4494C2871.65 117.443 2957.12 209.291 2959.19 378.397 2960.38 475.029 2924.45 547.892 2862.1 596.18L2814.69 625.229 2760.55 644.194C2713.75 656.327 2661.22 662.016 2604.41 661.156 2576.01 660.726 2548.71 658.324 2522.7 654.128L2449.96 636.657 2439.79 632.159 2435.24 634.289C2347.91 667.709 2242.64 687.223 2129.32 687.223 2016 687.223 1910.72 667.709 1823.39 634.289L1818.05 631.79 1817.61 631.997C1730.28 665.417 1625.01 684.931 1511.69 684.931 1436.14 684.931 1364.17 676.258 1298.71 660.574L1209.2 633.054 1161.9 645.215 1139.12 650.261C1073.66 665.946 1001.69 674.619 926.143 674.619 831.71 674.619 742.864 661.067 665.336 637.21L628.423 624.16 616.776 630.593C579.848 648.28 536.574 661.21 486.748 668.323L442.496 672.936 425.394 673.473C292.368 673.473 35.2227 596.823 35.2227 379.375 35.2227 243.47 96.2978 168.086 199.189 130.659L239.975 119.585 236.177 126.534C228.473 143.387 222.565 162.567 218.584 184.379L217.284 194.39 227.023 172.528C281.192 71.6764 406.344 54.7235 540.841 53.8642 708.963 52.7902 850.396 87.565 867.418 266.183L867.802 274.597 869.135 258.023C869.135 203.634 850.636 154.882 817.135 115.187L780.884 80.6564 829.877 63.6115 854.717 57.7842 854.718 57.7842 874.304 53.1893C919.729 44.1331 968.025 39.2546 1018.1 39.2546 1074.43 39.2546 1128.52 45.4291 1178.79 56.7798L1220.48 67.8841 1165.61 96.4877 1157.45 102.739 1205.77 80.157 1232.33 71.5086C1250.56 66.0017 1265.35 60.4952 1287.01 54.9884L1348.98 41.1575C1400.38 32.1017 1455.03 27.2228 1511.69 27.2228 1700.55 27.2228 1867.07 81.4291 1965.4 163.876L1972.29 170.302 1949.89 144.225Z" stroke="#FFFFFF" stroke-width="5" stroke-linecap="round" stroke-linejoin="round" stroke-miterlimit="10" fill="url(#fill1)" fill-rule="evenodd"/><path d="M1419.13 679.664 1437.17 681.223 1428.1 680.834ZM862.217 671.821 925.951 674.097 870.071 672.5ZM799.893 665.498 842.718 670.137 815.757 667.807ZM738.086 654.945 778.929 662.446 763.333 660.176ZM550.318 654.25 528.439 660.177 486.742 667.802ZM703.651 646.867 720.194 651.237 713.075 649.762ZM583.412 642.736 566.882 649.763 559.868 651.663ZM1208.99 632.57 1289.01 657.158 1274.24 653.865 1208.89 632.598ZM2439.28 631.676 2449.44 636.168 2448.12 635.852 2438.76 631.92ZM628.354 623.684 629.339 624.033 628.301 623.713ZM540.794 8.08903C614.552 8.08903 679.147 22.8356 731.078 48.9105L749.702 60.5453 829.758 32.7108C887.596 17.04 951.186 8.37461 1017.94 8.37461 1093.03 8.37461 1164.12 19.342 1227.53 38.9124L1278.24 57.5846 1232.11 71.512 1205.56 80.1529 1157.25 102.716 1165.41 96.4695 1220.27 67.8907 1178.59 56.796C1128.33 45.4551 1074.26 39.286 1017.94 39.286 967.873 39.286 919.589 44.1603 874.175 53.2086L854.594 57.7995 854.592 57.7995 829.758 63.6218 780.777 80.6519 817.02 115.152C850.512 154.813 869.007 203.523 869.007 257.865L867.674 274.424 867.291 266.018C850.273 87.5545 708.874 52.8098 540.793 53.8829 406.329 54.7415 281.208 71.6797 227.052 172.444L217.316 194.287 218.616 184.285C222.596 162.491 228.502 143.328 236.204 126.489L240.001 119.547 199.225 130.611 183.477 137.433 185.675 142.277C187.693 154.979 180.681 171.204 166.654 183.372 147.95 199.597 123.857 202.469 112.84 189.785L109.902 183.311 102.153 189.868C59.1506 232.998 35.299 294.245 35.299 379.111 35.299 596.37 292.381 672.954 425.375 672.954L442.464 672.418 441.677 672.5C426.11 673.557 409.986 674.099 393.299 674.099 260.305 674.099 3.22266 593.388 3.22266 364.42 3.22266 192.694 91.149 112.734 233.731 83.4875L268.787 78.5837 282.546 65.3656C340.136 17.8582 430.155 8.08903 540.794 8.08903ZM1554.08 3.22266C1654.2 3.22266 1747.21 22.7199 1824.37 56.1109L1854.4 71.9807 1871.23 60.6906C1932.02 27.2996 2005.31 7.80237 2084.2 7.80237 2143.37 7.80237 2199.38 18.7697 2249.34 38.3402L2288.22 56.509 2307.48 47.0842C2349.54 30.2343 2400.23 20.3956 2454.8 20.3956 2527.56 20.3956 2593.43 37.8866 2641.12 66.166L2644.89 68.8805 2694.82 71.8073C2892.07 94.4852 2984.94 189.192 2987.19 363.561 2988.8 488.111 2927.4 574.365 2825.66 620.701L2814.09 624.75 2861.48 595.728C2923.82 547.482 2959.74 474.683 2958.55 378.135 2956.48 209.175 2871.03 117.406 2689.56 95.4321L2678.27 94.7354 2697.58 115.839C2710.92 134.535 2718.29 155.091 2718.29 176.667L2716.15 189.26 2712.94 170.359C2688.37 99.1493 2582.13 45.5824 2454.8 45.5824 2327.47 45.5824 2221.24 99.1493 2196.67 170.359L2193.45 189.259 2191.31 176.667C2191.31 144.302 2207.9 114.235 2236.31 89.2943L2262.61 70.3938 2237.37 59.615C2190.29 43.9443 2138.53 35.2788 2084.2 35.2788 2029.87 35.2788 1978.11 43.9443 1931.03 59.615L1876.16 83.0523C1887.83 92.851 1933.54 129.637 1949.5 144.165L1971.89 170.22 1965 163.799C1866.7 81.4239 1700.22 27.2646 1511.4 27.2646 1454.76 27.2646 1400.12 32.1393 1348.73 41.1873L1286.78 55.0061 1286.77 55.0101 1344.48 33.7604C1407.89 14.19 1478.98 3.22266 1554.08 3.22266Z" stroke="#FFFFFF" stroke-width="5" stroke-linecap="round" stroke-linejoin="round" stroke-miterlimit="10" fill="#FFFFFF" fill-rule="evenodd"/></g></g><path d="M2655.17 1916.5C2639.21 1901.96 2593.48 1865.14 2581.81 1855.34L2636.69 1831.88C2683.78 1816.19 2735.56 1807.52 2789.9 1807.52 2844.25 1807.52 2896.02 1816.19 2943.11 1831.88L2968.35 1842.67 2942.05 1861.58C2913.64 1886.55 2897.04 1916.64 2897.04 1949.03L2899.18 1961.63 2902.4 1942.72C2926.97 1871.45 3033.23 1817.83 3160.59 1817.83 3287.96 1817.83 3394.22 1871.45 3418.79 1942.72L3422.01 1961.64 3424.15 1949.03C3424.15 1927.44 3416.77 1906.86 3403.44 1888.15L3384.12 1867.03 3395.41 1867.73C3576.93 1889.72 3662.4 1981.57 3664.47 2150.67 3665.66 2247.31 3629.73 2320.17 3567.37 2368.46L3519.97 2397.51 3465.83 2416.47C3419.03 2428.6 3366.5 2434.29 3309.69 2433.43 3281.29 2433 3253.99 2430.6 3227.97 2426.41L3155.24 2408.93 3145.07 2404.44 3140.51 2406.57C3053.19 2439.99 2947.91 2459.5 2834.59 2459.5 2721.27 2459.5 2616 2439.99 2528.67 2406.57L2523.33 2404.07 2522.88 2404.27C2435.56 2437.69 2330.28 2457.21 2216.96 2457.21 2141.42 2457.21 2069.45 2448.54 2003.99 2432.85L1914.48 2405.33 1867.17 2417.49 1844.4 2422.54C1778.94 2438.22 1706.97 2446.9 1631.42 2446.9 1536.99 2446.9 1448.14 2433.34 1370.61 2409.49L1333.7 2396.44 1322.05 2402.87C1285.12 2420.56 1241.85 2433.49 1192.03 2440.6L1147.77 2445.21 1130.67 2445.75C997.645 2445.75 740.5 2369.1 740.5 2151.65 740.5 2015.75 801.575 1940.36 904.466 1902.94L945.252 1891.86 941.454 1898.81C933.75 1915.66 927.843 1934.84 923.861 1956.66L922.561 1966.67 932.3 1944.81C986.469 1843.95 1111.62 1827 1246.12 1826.14 1414.24 1825.07 1555.67 1859.84 1572.7 2038.46L1573.08 2046.87 1574.41 2030.3C1574.41 1975.91 1555.91 1927.16 1522.41 1887.46L1486.16 1852.93 1535.15 1835.89 1559.99 1830.06 1560 1830.06 1579.58 1825.47C1625.01 1816.41 1673.3 1811.53 1723.38 1811.53 1779.71 1811.53 1833.79 1817.71 1884.07 1829.06L1925.76 1840.16 1870.89 1868.76 1862.73 1875.02 1911.04 1852.43 1937.61 1843.79C1955.83 1838.28 1970.62 1832.77 1992.29 1827.27L2054.26 1813.43C2105.66 1804.38 2160.3 1799.5 2216.96 1799.5 2405.83 1799.5 2572.35 1853.71 2670.68 1936.15L2677.57 1942.58 2655.17 1916.5Z" stroke="#FFFFFF" stroke-width="4.58333" stroke-linecap="round" stroke-linejoin="round" stroke-miterlimit="10" fill="url(#fill2)" fill-rule="evenodd"/><path d="M2124.4 2451.94 2142.44 2453.5 2133.37 2453.11ZM1567.49 2444.1 1631.23 2446.37 1575.35 2444.78ZM1505.17 2437.77 1548 2442.41 1521.03 2440.08ZM1443.36 2427.22 1484.21 2434.72 1468.61 2432.45ZM1255.6 2426.53 1233.72 2432.45 1192.02 2440.08ZM1408.93 2419.14 1425.47 2423.51 1418.35 2422.04ZM1288.69 2415.01 1272.16 2422.04 1265.15 2423.94ZM1914.27 2404.85 1994.29 2429.44 1979.52 2426.14 1914.16 2404.88ZM3144.56 2403.95 3154.72 2408.45 3153.4 2408.13 3144.04 2404.2ZM1333.63 2395.96 1334.62 2396.31 1333.58 2395.99ZM1246.07 1780.37C1319.83 1780.37 1384.42 1795.11 1436.36 1821.19L1454.98 1832.82 1535.04 1804.99C1592.87 1789.32 1656.46 1780.65 1723.21 1780.65 1798.31 1780.65 1869.4 1791.62 1932.8 1811.19L1983.52 1829.86 1937.39 1843.79 1910.83 1852.43 1862.53 1874.99 1870.69 1868.75 1925.54 1840.17 1883.87 1829.07C1833.6 1817.73 1779.53 1811.56 1723.21 1811.56 1673.15 1811.56 1624.87 1816.44 1579.45 1825.49L1559.87 1830.08 1559.87 1830.08 1535.04 1835.9 1486.05 1852.93 1522.3 1887.43C1555.79 1927.09 1574.28 1975.8 1574.28 2030.14L1572.95 2046.7 1572.57 2038.3C1555.55 1859.83 1414.15 1825.09 1246.07 1826.16 1111.61 1827.02 986.485 1843.96 932.329 1944.72L922.593 1966.56 923.893 1956.56C927.873 1934.77 933.779 1915.61 941.481 1898.77L945.279 1891.82 904.503 1902.89 888.754 1909.71 890.952 1914.55C892.971 1927.26 885.959 1943.48 871.931 1955.65 853.228 1971.87 829.134 1974.75 818.117 1962.06L815.179 1955.59 807.43 1962.15C764.428 2005.28 740.576 2066.52 740.576 2151.39 740.576 2368.65 997.658 2445.23 1130.65 2445.23L1147.74 2444.7 1146.95 2444.78C1131.39 2445.83 1115.26 2446.38 1098.58 2446.38 965.582 2446.38 708.5 2365.67 708.5 2136.7 708.5 1964.97 796.426 1885.01 939.008 1855.76L974.065 1850.86 987.824 1837.64C1045.41 1790.14 1135.43 1780.37 1246.07 1780.37ZM2259.35 1775.5C2359.48 1775.5 2452.49 1795 2529.65 1828.39L2559.68 1844.26 2576.51 1832.97C2637.3 1799.58 2710.59 1780.08 2789.48 1780.08 2848.64 1780.08 2904.66 1791.05 2954.62 1810.62L2993.5 1828.79 3012.76 1819.36C3054.81 1802.51 3105.51 1792.67 3160.08 1792.67 3232.84 1792.67 3298.71 1810.16 3346.39 1838.44L3350.17 1841.16 3400.1 1844.08C3597.34 1866.76 3690.21 1961.47 3692.47 2135.84 3694.08 2260.39 3632.68 2346.64 3530.94 2392.98L3519.37 2397.03 3566.76 2368.01C3629.1 2319.76 3665.02 2246.96 3663.83 2150.41 3661.76 1981.45 3576.31 1889.68 3394.83 1867.71L3383.55 1867.01 3402.86 1888.12C3416.19 1906.81 3423.57 1927.37 3423.57 1948.94L3421.43 1961.54 3418.21 1942.64C3393.64 1871.43 3287.41 1817.86 3160.08 1817.86 3032.75 1817.86 2926.51 1871.43 2901.94 1942.64L2898.73 1961.54 2896.59 1948.94C2896.59 1916.58 2913.18 1886.51 2941.59 1861.57L2967.88 1842.67 2942.65 1831.89C2895.57 1816.22 2843.81 1807.56 2789.48 1807.56 2735.14 1807.56 2683.38 1816.22 2636.3 1831.89L2581.44 1855.33C2593.11 1865.13 2638.82 1901.91 2654.77 1916.44L2677.17 1942.5 2670.28 1936.08C2571.97 1853.7 2405.5 1799.54 2216.68 1799.54 2160.03 1799.54 2105.4 1804.42 2054.01 1813.46L1992.06 1827.28 1992.05 1827.29 2049.76 1806.04C2113.17 1786.47 2184.26 1775.5 2259.35 1775.5Z" stroke="#FFFFFF" stroke-width="4.58333" stroke-linecap="round" stroke-linejoin="round" stroke-miterlimit="10" fill="#FFFFFF" fill-rule="evenodd"/></g></svg>